<svg viewBox="0 0 47 50" fill="none" xmlns="http://www.w3.org/2000/svg">
<path d="M41.0629 28.4957L9.31936 28.5047L6.00001 25.1853L9.36648 21.8189L41.112 21.4063C42.0915 21.3994 42.9754 21.7901 43.6119 22.4266C44.2484 23.063 44.6391 23.947 44.633 24.9256C44.6201 26.8837 43.021 28.4828 41.0629 28.4957Z" fill="#FE654F"/>
<path d="M23.664 49.0836L0 25.0078H4.00782H8.17579L28.0841 44.6634C29.3053 45.8836 29.3053 47.8634 28.0841 49.0836C27.4735 49.6942 26.6732 49.9995 25.874 49.9995C25.0748 49.9995 24.2746 49.6942 23.664 49.0836Z" fill="#F7EF81"/>
<path d="M28.0841 5.33604L8.17577 25.0078H4.0078L0 25L23.6639 0.915911C24.8852 -0.305304 26.8629 -0.305304 28.0841 0.915911C29.3053 2.13608 29.3053 4.11587 28.0841 5.33604Z" fill="#B2FFD6"/>
</svg>
