<svg viewBox="0 0 50 50" fill="none" xmlns="http://www.w3.org/2000/svg">
<path d="M5.33604 0.915911L25.0078 20.8398V25.0078H20.8398L0.915911 5.33604C-0.305304 4.11587 -0.305304 2.13608 0.915911 0.915911C2.13713 -0.305304 4.11483 -0.305304 5.33604 0.915911Z" fill="#7BDFF2"/>
<path d="M0.915911 44.664L20.8398 25.0078H25.0078V29.1758L5.33604 49.083C4.72543 49.6937 3.92518 49.999 3.12598 49.999C2.32677 49.999 1.52652 49.6937 0.915911 49.0841C-0.305304 47.8639 -0.305304 45.8841 0.915911 44.664Z" fill="#FE654F"/>
<path d="M44.664 49.0836L25.0078 29.1758V25.0078H29.1758L49.0841 44.6634C50.3053 45.8836 50.3053 47.8634 49.0841 49.0836C48.4735 49.6942 47.6732 49.9995 46.874 49.9995C46.0748 49.9995 45.2746 49.6942 44.664 49.0836Z" fill="#F7EF81"/>
<path d="M49.0841 5.33604L29.1758 25.0078H25.0078V20.8398L44.664 0.915911C45.8852 -0.305304 47.8629 -0.305304 49.0841 0.915911C50.3053 2.13608 50.3053 4.11587 49.0841 5.33604Z" fill="#B2FFD6"/>
</svg>
