<svg viewBox="0 0 1099 847" fill="none" xmlns="http://www.w3.org/2000/svg">
<path opacity="0.1" d="M871.17 695.75C887.17 703.84 906.74 698.92 924.92 699.49C927.41 699.57 930.04 699.81 932.04 701.2C934.04 702.59 935.04 704.87 936.39 706.81C941.48 714.02 951.92 716.34 961.04 715.12C970.16 713.9 978.53 709.84 987.14 706.75C1002.02 701.42 1019.03 698.99 1033.71 704.81C1035.01 705.478 1036.46 705.798 1037.92 705.74C1041.14 705.27 1042.09 701.39 1044.35 699.18C1048.41 695.18 1057.23 696.28 1059.02 691.02C1060.02 687.93 1057.66 684.77 1055.02 682.67C1045.02 674.61 1030.64 673.28 1017.5 674.53C1004.36 675.78 991.5 679.19 978.27 679.21C961.83 679.21 945.94 673.95 929.66 671.8C918.38 670.3 906.07 670.49 895.49 674.89C884.06 679.69 881.55 690.33 871.17 695.75Z" fill="#FE654F"/>
<path opacity="0.1" d="M12.85 430.97C30.21 505.17 66.96 569.31 125.03 600.4C245.74 665.01 517.95 631.68 721.1 593.4C823.756 574.121 916.937 520.856 985.64 442.18L12.85 430.97Z" fill="#FE654F"/>
<path opacity="0.1" d="M1078.2 81.69H966.73C964.176 81.69 961.727 80.6754 959.921 78.8694C958.115 77.0635 957.1 74.614 957.1 72.06C957.1 69.506 958.115 67.0565 959.921 65.2506C961.727 63.4446 964.176 62.43 966.73 62.43H986C983.498 62.3494 981.126 61.299 979.385 59.5009C977.644 57.7027 976.67 55.2979 976.67 52.795C976.67 50.2921 977.644 47.8873 979.385 46.0891C981.126 44.291 983.498 43.2406 986 43.16H972.24C969.738 43.0794 967.366 42.029 965.625 40.2309C963.884 38.4327 962.91 36.0279 962.91 33.525C962.91 31.0221 963.884 28.6173 965.625 26.8191C967.366 25.021 969.738 23.9706 972.24 23.89H1030.42C1017.51 17.89 1002.42 13.62 985.03 11.39C826.39 -8.99 769.75 4.49 749.77 18.39C725.12 35.49 697.62 48.07 668.23 54.13C570.35 74.32 387.3 98.62 221.39 46.36C138.93 20.36 77.65 64.27 40.91 137.64H1097.55C1096.17 116.31 1092.04 96.64 1084.46 79.39C1082.72 80.8832 1080.5 81.6996 1078.2 81.69V81.69Z" fill="#FE654F"/>
<path opacity="0.1" d="M3.38997 276.1C-0.891342 319.252 0.561288 362.78 7.70997 405.55L986.39 441.35C1013.63 410.011 1036.51 375.127 1054.39 337.65L3.38997 276.1ZM390.47 368.45H371.2C373.754 368.45 376.203 369.465 378.009 371.271C379.815 373.077 380.83 375.526 380.83 378.08C380.83 380.634 379.815 383.083 378.009 384.889C376.203 386.695 373.754 387.71 371.2 387.71H259.73C257.176 387.71 254.727 386.695 252.921 384.889C251.115 383.083 250.1 380.634 250.1 378.08C250.1 375.526 251.115 373.077 252.921 371.271C254.727 369.465 257.176 368.45 259.73 368.45H279C276.498 368.369 274.126 367.319 272.385 365.521C270.644 363.723 269.67 361.318 269.67 358.815C269.67 356.312 270.644 353.907 272.385 352.109C274.126 350.311 276.498 349.261 279 349.18H265.24C262.738 349.099 260.366 348.049 258.625 346.251C256.884 344.453 255.91 342.048 255.91 339.545C255.91 337.042 256.884 334.637 258.625 332.839C260.366 331.041 262.738 329.991 265.24 329.91H376.71C379.212 329.991 381.584 331.041 383.325 332.839C385.066 334.637 386.04 337.042 386.04 339.545C386.04 342.048 385.066 344.453 383.325 346.251C381.584 348.049 379.212 349.099 376.71 349.18H390.47C392.972 349.261 395.344 350.311 397.085 352.109C398.826 353.907 399.799 356.312 399.799 358.815C399.799 361.318 398.826 363.723 397.085 365.521C395.344 367.319 392.972 368.369 390.47 368.45V368.45Z" fill="#FE654F"/>
<path opacity="0.1" d="M1097.6 138.29L29.12 164.29C16.12 197.69 7.54999 235.46 3.54999 274.62H1078.88C1085.9 251.618 1091.09 228.098 1094.41 204.28C1097.61 181.27 1098.89 159.02 1097.6 138.29ZM220.47 223.45H201.2C203.754 223.45 206.203 224.465 208.009 226.271C209.815 228.077 210.83 230.526 210.83 233.08C210.83 235.634 209.815 238.083 208.009 239.889C206.203 241.695 203.754 242.71 201.2 242.71H89.73C87.1759 242.71 84.7265 241.695 82.9205 239.889C81.1146 238.083 80.1 235.634 80.1 233.08C80.1 230.526 81.1146 228.077 82.9205 226.271C84.7265 224.465 87.1759 223.45 89.73 223.45H109C106.498 223.369 104.126 222.319 102.385 220.521C100.644 218.723 99.6704 216.318 99.6704 213.815C99.6704 211.312 100.644 208.907 102.385 207.109C104.126 205.311 106.498 204.261 109 204.18H95.24C92.7384 204.099 90.3661 203.049 88.625 201.251C86.8839 199.453 85.9104 197.048 85.9104 194.545C85.9104 192.042 86.8839 189.637 88.625 187.839C90.3661 186.041 92.7384 184.991 95.24 184.91H206.71C209.212 184.991 211.584 186.041 213.325 187.839C215.066 189.637 216.04 192.042 216.04 194.545C216.04 197.048 215.066 199.453 213.325 201.251C211.584 203.049 209.212 204.099 206.71 204.18H220.47C222.972 204.261 225.344 205.311 227.085 207.109C228.826 208.907 229.8 211.312 229.8 213.815C229.8 216.318 228.826 218.723 227.085 220.521C225.344 222.319 222.972 223.369 220.47 223.45V223.45Z" fill="#FE654F"/>
<g opacity="0.1">
<path opacity="0.1" d="M584.31 594.62C584.31 594.62 612.51 525.12 665.17 499.33C687.325 488.66 705.421 471.091 716.74 449.26C722.032 438.851 726.36 427.979 729.67 416.78" stroke="#535461" stroke-width="2" stroke-miterlimit="10"/>
<path opacity="0.1" d="M762.76 400.34C757.27 407.24 728.86 417.34 728.86 417.34C728.86 417.34 732.28 387.39 737.77 380.49C739.022 378.702 740.627 377.189 742.486 376.044C744.345 374.9 746.419 374.148 748.579 373.834C750.74 373.521 752.941 373.653 755.049 374.222C757.156 374.792 759.125 375.787 760.834 377.145C762.542 378.504 763.955 380.198 764.985 382.123C766.014 384.048 766.639 386.164 766.82 388.339C767.001 390.515 766.736 392.705 766.039 394.774C765.343 396.843 764.23 398.747 762.77 400.37L762.76 400.34Z" fill="#FE654F"/>
<path opacity="0.1" d="M753.01 454.99C744.65 457.8 715.33 450.82 715.33 450.82C715.33 450.82 734.48 427.54 742.84 424.73C744.867 423.889 747.045 423.473 749.239 423.509C751.433 423.546 753.596 424.033 755.594 424.941C757.592 425.849 759.382 427.158 760.852 428.787C762.322 430.416 763.442 432.33 764.141 434.41C764.84 436.49 765.104 438.692 764.916 440.878C764.728 443.065 764.092 445.189 763.048 447.119C762.004 449.049 760.574 450.744 758.847 452.098C757.12 453.452 755.133 454.437 753.01 454.99Z" fill="#FE654F"/>
<path opacity="0.1" d="M700.15 519.6C691.52 517.81 669.73 496.97 669.73 496.97C669.73 496.97 698.02 486.54 706.65 488.34C710.56 489.43 713.909 491.964 716.02 495.431C718.131 498.897 718.846 503.036 718.019 507.01C717.193 510.983 714.888 514.495 711.57 516.832C708.252 519.17 704.17 520.159 700.15 519.6Z" fill="#FE654F"/>
<path opacity="0.1" d="M649.15 559.48C640.34 559.17 615.34 542.32 615.34 542.32C615.34 542.32 641.46 527.26 650.27 527.56C652.453 527.502 654.625 527.892 656.651 528.706C658.678 529.519 660.517 530.739 662.054 532.29C663.592 533.841 664.796 535.69 665.591 537.724C666.387 539.758 666.758 541.933 666.682 544.115C666.605 546.298 666.082 548.442 665.146 550.415C664.21 552.388 662.879 554.148 661.237 555.587C659.595 557.027 657.675 558.115 655.596 558.784C653.517 559.454 651.324 559.69 649.15 559.48V559.48Z" fill="#FE654F"/>
<path opacity="0.1" d="M688.03 431.29C689.15 440.03 708.25 463.36 708.25 463.36C708.25 463.36 720.83 435.96 719.7 427.21C719.563 425.025 718.978 422.892 717.983 420.942C716.988 418.992 715.604 417.267 713.915 415.873C712.227 414.48 710.27 413.448 708.167 412.841C706.064 412.234 703.858 412.065 701.687 412.345C699.516 412.625 697.425 413.347 695.544 414.467C693.664 415.587 692.033 417.082 690.752 418.857C689.472 420.633 688.57 422.653 688.102 424.791C687.634 426.93 687.609 429.142 688.03 431.29V431.29Z" fill="#FE654F"/>
<path opacity="0.1" d="M628.97 478.69C632.66 486.69 657.87 503.24 657.87 503.24C657.87 503.24 661.66 473.33 657.97 465.32C656.034 461.745 652.81 459.042 648.952 457.759C645.095 456.475 640.894 456.708 637.202 458.41C633.511 460.112 630.605 463.156 629.076 466.922C627.547 470.689 627.509 474.896 628.97 478.69V478.69Z" fill="#FE654F"/>
<path opacity="0.1" d="M577.89 532.62C580.18 541.13 602.22 561.7 602.22 561.7C602.22 561.7 611.02 532.86 608.74 524.35C607.445 520.488 604.726 517.266 601.138 515.34C597.549 513.413 593.361 512.928 589.427 513.983C585.493 515.037 582.11 517.552 579.966 521.015C577.822 524.478 577.08 528.629 577.89 532.62V532.62Z" fill="#FE654F"/>
<path opacity="0.25" d="M762.76 400.34C757.27 407.24 728.86 417.34 728.86 417.34C728.86 417.34 732.28 387.39 737.77 380.49C739.022 378.702 740.627 377.189 742.486 376.044C744.345 374.9 746.419 374.148 748.579 373.834C750.74 373.521 752.941 373.653 755.049 374.222C757.156 374.792 759.125 375.787 760.834 377.145C762.542 378.504 763.955 380.198 764.985 382.123C766.014 384.048 766.639 386.164 766.82 388.339C767.001 390.515 766.736 392.705 766.039 394.774C765.343 396.843 764.23 398.747 762.77 400.37L762.76 400.34Z" fill="black"/>
<path opacity="0.25" d="M753.01 454.99C744.65 457.8 715.33 450.82 715.33 450.82C715.33 450.82 734.48 427.54 742.84 424.73C744.867 423.889 747.045 423.473 749.239 423.509C751.433 423.546 753.596 424.033 755.594 424.941C757.592 425.849 759.382 427.158 760.852 428.787C762.322 430.416 763.442 432.33 764.141 434.41C764.84 436.49 765.104 438.692 764.916 440.878C764.728 443.065 764.092 445.189 763.048 447.119C762.004 449.049 760.574 450.744 758.847 452.098C757.12 453.452 755.133 454.437 753.01 454.99Z" fill="black"/>
<path opacity="0.25" d="M700.15 519.6C691.52 517.81 669.73 496.97 669.73 496.97C669.73 496.97 698.02 486.54 706.65 488.34C710.56 489.43 713.909 491.964 716.02 495.431C718.131 498.897 718.846 503.036 718.019 507.01C717.193 510.983 714.888 514.495 711.57 516.832C708.252 519.17 704.17 520.159 700.15 519.6Z" fill="black"/>
<path opacity="0.25" d="M649.15 559.48C640.34 559.17 615.34 542.32 615.34 542.32C615.34 542.32 641.46 527.26 650.27 527.56C652.453 527.502 654.625 527.892 656.651 528.706C658.678 529.519 660.517 530.739 662.054 532.29C663.592 533.841 664.796 535.69 665.591 537.724C666.387 539.758 666.758 541.933 666.682 544.115C666.605 546.298 666.082 548.442 665.146 550.415C664.21 552.388 662.879 554.148 661.237 555.587C659.595 557.027 657.675 558.115 655.596 558.784C653.517 559.454 651.324 559.69 649.15 559.48V559.48Z" fill="black"/>
<path opacity="0.25" d="M688.03 431.29C689.15 440.03 708.25 463.36 708.25 463.36C708.25 463.36 720.83 435.96 719.7 427.21C719.563 425.025 718.978 422.892 717.983 420.942C716.988 418.992 715.604 417.267 713.915 415.873C712.227 414.48 710.27 413.448 708.167 412.841C706.064 412.234 703.858 412.065 701.687 412.345C699.516 412.625 697.425 413.347 695.544 414.467C693.664 415.587 692.033 417.082 690.752 418.857C689.472 420.633 688.57 422.653 688.102 424.791C687.634 426.93 687.609 429.142 688.03 431.29V431.29Z" fill="black"/>
<path opacity="0.25" d="M628.97 478.69C632.66 486.69 657.87 503.24 657.87 503.24C657.87 503.24 661.66 473.33 657.97 465.32C656.034 461.745 652.81 459.042 648.952 457.759C645.095 456.475 640.894 456.708 637.202 458.41C633.511 460.112 630.605 463.156 629.076 466.922C627.547 470.689 627.509 474.896 628.97 478.69V478.69Z" fill="black"/>
<path opacity="0.25" d="M577.89 532.62C580.18 541.13 602.22 561.7 602.22 561.7C602.22 561.7 611.02 532.86 608.74 524.35C607.445 520.488 604.726 517.266 601.138 515.34C597.549 513.413 593.361 512.928 589.427 513.983C585.493 515.037 582.11 517.552 579.966 521.015C577.822 524.478 577.08 528.629 577.89 532.62V532.62Z" fill="black"/>
</g>
<g opacity="0.1">
<path opacity="0.1" d="M605.41 489.39C605.41 489.39 608.97 414.47 650.1 372.69C667.465 355.273 678.712 332.693 682.15 308.34C683.682 296.767 684.15 285.078 683.55 273.42" stroke="#535461" stroke-width="2" stroke-miterlimit="10"/>
<path opacity="0.1" d="M709.34 246.93C706.45 255.26 682.99 274.18 682.99 274.18C682.99 274.18 676.29 244.79 679.17 236.46C679.754 234.352 680.764 232.387 682.137 230.685C683.511 228.983 685.218 227.581 687.155 226.565C689.091 225.549 691.216 224.94 693.396 224.777C695.577 224.614 697.769 224.9 699.835 225.617C701.901 226.334 703.798 227.467 705.409 228.946C707.02 230.425 708.311 232.218 709.202 234.216C710.092 236.213 710.564 238.372 710.588 240.558C710.612 242.745 710.187 244.914 709.34 246.93V246.93Z" fill="#FE654F"/>
<path opacity="0.1" d="M718.27 301.69C711.27 307.12 681.33 310.25 681.33 310.25C681.33 310.25 691.68 281.93 698.63 276.51C701.99 274.221 706.095 273.297 710.111 273.925C714.128 274.554 717.754 276.687 720.255 279.893C722.755 283.098 723.941 287.135 723.573 291.184C723.204 295.232 721.308 298.989 718.27 301.69V301.69Z" fill="#FE654F"/>
<path opacity="0.1" d="M689.83 380.2C681.09 381.37 653.62 368.94 653.62 368.94C653.62 368.94 676.85 349.69 685.55 348.55C689.604 348.273 693.613 349.548 696.761 352.118C699.909 354.688 701.961 358.36 702.501 362.388C703.04 366.416 702.027 370.499 699.666 373.807C697.306 377.115 693.775 379.401 689.79 380.2H689.83Z" fill="#FE654F"/>
<path opacity="0.1" d="M654.93 434.74C646.52 437.37 617.35 429.74 617.35 429.74C617.35 429.74 636.99 406.87 645.41 404.24C647.452 403.453 649.635 403.093 651.822 403.183C654.009 403.273 656.154 403.811 658.125 404.763C660.096 405.715 661.85 407.062 663.28 408.719C664.71 410.377 665.784 412.31 666.437 414.399C667.089 416.489 667.306 418.69 667.074 420.866C666.842 423.043 666.166 425.149 665.087 427.053C664.008 428.958 662.551 430.621 660.804 431.94C659.056 433.259 657.057 434.205 654.93 434.72V434.74Z" fill="#FE654F"/>
<path opacity="0.1" d="M649.1 300.91C653.1 308.78 678.82 324.46 678.82 324.46C678.82 324.46 681.59 294.46 677.63 286.56C676.773 284.548 675.513 282.733 673.928 281.228C672.342 279.722 670.465 278.557 668.412 277.805C666.359 277.053 664.173 276.73 661.99 276.855C659.807 276.981 657.673 277.552 655.72 278.535C653.766 279.517 652.035 280.89 650.633 282.568C649.23 284.245 648.187 286.193 647.567 288.29C646.946 290.386 646.762 292.588 647.026 294.759C647.29 296.929 647.996 299.023 649.1 300.91V300.91Z" fill="#FE654F"/>
<path opacity="0.1" d="M609.1 365.2C615.24 371.53 644.5 378.78 644.5 378.78C644.5 378.78 638.17 349.31 632.03 342.98C630.613 341.31 628.868 339.948 626.904 338.979C624.939 338.01 622.797 337.455 620.609 337.349C618.421 337.242 616.235 337.585 614.185 338.357C612.136 339.13 610.266 340.315 608.693 341.839C607.12 343.364 605.877 345.195 605.041 347.219C604.204 349.243 603.792 351.418 603.83 353.608C603.868 355.798 604.356 357.957 605.262 359.951C606.169 361.945 607.475 363.731 609.1 365.2Z" fill="#FE654F"/>
<path opacity="0.1" d="M578.8 433.03C583.8 440.31 611.4 452.39 611.4 452.39C611.4 452.39 610.13 422.27 605.16 415C604.053 413.103 602.567 411.453 600.795 410.155C599.023 408.857 597.002 407.938 594.859 407.455C592.716 406.972 590.497 406.935 588.339 407.347C586.181 407.759 584.132 408.611 582.317 409.85C580.503 411.088 578.964 412.688 577.794 414.547C576.625 416.407 575.852 418.488 575.522 420.66C575.192 422.831 575.312 425.048 575.876 427.171C576.44 429.294 577.436 431.278 578.8 433V433.03Z" fill="#FE654F"/>
</g>
<path d="M989.6 623.69C989.6 623.69 995.1 630.88 987.07 641.69C979.04 652.5 972.42 661.69 975.07 668.46C975.07 668.46 987.19 648.32 997.07 648.03C1006.95 647.74 1000.45 635.8 989.6 623.69Z" fill="#FE654F"/>
<path opacity="0.1" d="M989.6 623.69C990.081 624.386 990.462 625.147 990.73 625.95C1000.35 637.25 1005.47 647.8 996.22 648.06C987.61 648.31 977.28 663.71 974.8 667.6C974.882 667.901 974.978 668.198 975.09 668.49C975.09 668.49 987.21 648.35 997.09 648.06C1006.97 647.77 1000.45 635.8 989.6 623.69Z" fill="black"/>
<path d="M999.82 632.84C999.82 635.37 999.53 637.42 999.18 637.42C998.83 637.42 998.55 635.37 998.55 632.84C998.55 630.31 998.9 631.5 999.25 631.5C999.6 631.5 999.82 630.31 999.82 632.84Z" fill="#FFD037"/>
<path d="M1003.32 635.86C1001.1 637.07 999.16 637.8 999 637.49C998.84 637.18 1000.49 635.96 1002.71 634.75C1004.93 633.54 1004.06 634.42 1004.23 634.75C1004.4 635.08 1005.55 634.69 1003.32 635.86Z" fill="#FFD037"/>
<path d="M960.55 623.69C960.55 623.69 955.05 630.88 963.08 641.69C971.11 652.5 977.73 661.69 975.08 668.46C975.08 668.46 962.97 648.32 953.08 648.03C943.19 647.74 949.74 635.8 960.55 623.69Z" fill="#FE654F"/>
<path opacity="0.1" d="M960.55 623.69C960.069 624.386 959.688 625.147 959.42 625.95C949.8 637.25 944.68 647.8 953.93 648.06C962.54 648.31 972.87 663.71 975.35 667.6C975.27 667.903 975.169 668.2 975.05 668.49C975.05 668.49 962.94 648.35 953.05 648.06C943.16 647.77 949.74 635.8 960.55 623.69Z" fill="black"/>
<path d="M950.37 632.84C950.37 635.37 950.66 637.42 951.01 637.42C951.36 637.42 951.64 635.37 951.64 632.84C951.64 630.31 951.29 631.5 950.94 631.5C950.59 631.5 950.37 630.31 950.37 632.84Z" fill="#FFD037"/>
<path d="M946.87 635.86C949.09 637.07 951.02 637.8 951.19 637.49C951.36 637.18 949.7 635.96 947.48 634.75C945.26 633.54 946.13 634.42 945.96 634.75C945.79 635.08 944.65 634.69 946.87 635.86Z" fill="#FFD037"/>
<path d="M952.12 667.54C952.12 667.54 967.48 667.07 972.12 663.77C976.76 660.47 995.75 656.54 996.9 661.77C998.05 667 1019.98 688.07 1002.64 688.21C985.3 688.35 962.35 685.5 957.73 682.69C953.11 679.88 952.12 667.54 952.12 667.54Z" fill="#A8A8A8"/>
<path opacity="0.2" d="M1002.94 686.41C985.6 686.55 962.65 683.71 958.03 680.9C954.51 678.76 953.11 671.07 952.64 667.52H952.12C952.12 667.52 953.12 679.91 957.72 682.72C962.32 685.53 985.29 688.37 1002.63 688.24C1007.63 688.19 1009.36 686.41 1009.27 683.78C1008.55 685.39 1006.66 686.38 1002.94 686.41Z" fill="black"/>
<path opacity="0.1" d="M1.84003 719.52C22.52 727 47.75 722.45 71.21 722.98C74.42 723.05 77.83 723.27 80.4 724.56C82.97 725.85 84.25 727.95 86.01 729.74C92.59 736.41 106.01 738.56 117.84 737.43C129.67 736.3 140.41 732.55 151.55 729.69C170.76 724.76 192.72 722.51 211.67 727.89C213.409 728.52 215.252 728.812 217.1 728.75C221.25 728.31 222.49 724.75 225.4 722.69C230.64 719 242.03 720 244.34 715.13C245.69 712.28 242.58 709.36 239.2 707.41C226.25 699.96 207.72 698.73 190.78 699.88C173.84 701.03 157.17 704.2 140.13 704.21C118.91 704.21 98.4 699.35 77.38 697.36C62.82 695.98 46.94 696.15 33.29 700.22C18.47 704.62 15.21 714.5 1.84003 719.52Z" fill="#FE654F"/>
<path d="M235.64 699.91C237.478 698.419 238.818 696.403 239.48 694.13C239.97 691.83 238.99 689.08 236.8 688.24C234.34 687.3 231.71 689 229.72 690.72C227.73 692.44 225.44 694.41 222.83 694.05C224.172 692.832 225.176 691.288 225.744 689.567C226.312 687.846 226.424 686.007 226.07 684.23C225.956 683.494 225.645 682.803 225.17 682.23C223.81 680.77 221.33 681.4 219.69 682.55C214.49 686.21 213.04 693.27 213.02 699.63C212.49 697.33 212.93 694.95 212.92 692.63C212.91 690.31 212.26 687.63 210.28 686.41C209.057 685.733 207.678 685.388 206.28 685.41C203.94 685.33 201.34 685.56 199.74 687.27C197.74 689.39 198.27 692.96 200 695.27C201.73 697.58 204.35 699.07 206.76 700.69C208.7 701.843 210.354 703.419 211.6 705.3C211.748 705.56 211.868 705.835 211.96 706.12H226.55C229.849 704.474 232.907 702.385 235.64 699.91V699.91Z" fill="#FE654F"/>
<path d="M119.21 715.69C119.21 715.69 105.21 667.98 121.84 632.86C128.931 618.177 131.071 601.592 127.94 585.59C126.385 578.005 124.142 570.578 121.24 563.4" stroke="#535461" stroke-width="2" stroke-miterlimit="10"/>
<path d="M131.63 541.21C131.63 547.06 121.04 564.01 121.04 564.01C121.04 564.01 110.45 547.01 110.45 541.21C110.45 538.401 111.566 535.708 113.552 533.722C115.538 531.736 118.231 530.62 121.04 530.62C123.849 530.62 126.542 531.736 128.528 533.722C130.514 535.708 131.63 538.401 131.63 541.21V541.21Z" fill="#FE654F"/>
<path d="M149.13 573.6C145.95 578.5 127.85 586.98 127.85 586.98C127.85 586.98 128.17 566.98 131.35 562.09C132.876 559.732 135.277 558.077 138.023 557.489C140.77 556.901 143.637 557.429 145.995 558.955C148.353 560.481 150.008 562.882 150.596 565.628C151.183 568.375 150.656 571.242 149.13 573.6V573.6Z" fill="#FE654F"/>
<path d="M148.36 628.94C143.14 631.57 123.23 629.76 123.23 629.76C123.23 629.76 133.61 612.67 138.83 610.04C141.336 608.776 144.242 608.56 146.908 609.438C149.574 610.317 151.781 612.219 153.045 614.725C154.309 617.231 154.525 620.137 153.647 622.803C152.768 625.469 150.866 627.676 148.36 628.94V628.94Z" fill="#FE654F"/>
<path d="M138.35 670.69C133.65 674.16 113.72 675.69 113.72 675.69C113.72 675.69 121.06 657.09 125.72 653.61C126.829 652.701 128.112 652.026 129.49 651.627C130.868 651.229 132.313 651.114 133.736 651.291C135.16 651.467 136.533 651.931 137.772 652.654C139.011 653.377 140.09 654.345 140.944 655.498C141.797 656.65 142.408 657.965 142.739 659.361C143.069 660.757 143.112 662.205 142.866 663.618C142.62 665.032 142.089 666.38 141.306 667.582C140.523 668.784 139.503 669.814 138.31 670.61L138.35 670.69Z" fill="#FE654F"/>
<path d="M105.62 588.12C109.81 592.19 129.35 596.41 129.35 596.41C129.35 596.41 124.56 577 120.35 572.93C119.361 571.92 118.181 571.117 116.877 570.571C115.574 570.024 114.174 569.744 112.76 569.746C111.347 569.749 109.948 570.035 108.647 570.586C107.346 571.138 106.168 571.945 105.183 572.959C104.198 573.973 103.427 575.174 102.913 576.491C102.4 577.808 102.156 579.214 102.195 580.627C102.233 582.04 102.555 583.431 103.14 584.718C103.724 586.005 104.561 587.162 105.6 588.12H105.62Z" fill="#FE654F"/>
<path d="M94.5501 637.09C99.7701 639.72 119.68 637.9 119.68 637.9C119.68 637.9 109.31 620.81 104.08 618.18C101.58 616.983 98.7109 616.814 96.0877 617.708C93.4646 618.603 91.2967 620.49 90.0493 622.965C88.802 625.44 88.5747 628.306 89.4161 630.947C90.2576 633.587 92.1008 635.793 94.5501 637.09Z" fill="#FE654F"/>
<path d="M90.29 686.16C94.99 689.64 114.92 691.16 114.92 691.16C114.92 691.16 107.58 672.56 102.92 669.09C101.811 668.181 100.528 667.506 99.1499 667.107C97.7718 666.709 96.3272 666.594 94.9036 666.771C93.4799 666.947 92.107 667.411 90.868 668.134C89.6291 668.857 88.55 669.825 87.6963 670.978C86.8425 672.13 86.2319 673.445 85.9014 674.841C85.5709 676.237 85.5275 677.685 85.7738 679.098C86.0201 680.511 86.551 681.86 87.3342 683.062C88.1174 684.264 89.1366 685.294 90.33 686.09L90.29 686.16Z" fill="#FE654F"/>
<path d="M131.63 541.21C131.63 547.06 121.04 564.01 121.04 564.01C121.04 564.01 110.45 547.01 110.45 541.21C110.45 538.401 111.566 535.708 113.552 533.722C115.538 531.736 118.231 530.62 121.04 530.62C123.849 530.62 126.542 531.736 128.528 533.722C130.514 535.708 131.63 538.401 131.63 541.21V541.21Z" fill="#FE654F"/>
<path d="M149.13 573.6C145.95 578.5 127.85 586.98 127.85 586.98C127.85 586.98 128.17 566.98 131.35 562.09C132.876 559.732 135.277 558.077 138.023 557.489C140.77 556.901 143.637 557.429 145.995 558.955C148.353 560.481 150.008 562.882 150.596 565.628C151.183 568.375 150.656 571.242 149.13 573.6V573.6Z" fill="#FE654F"/>
<path d="M148.36 628.94C143.14 631.57 123.23 629.76 123.23 629.76C123.23 629.76 133.61 612.67 138.83 610.04C141.336 608.776 144.242 608.56 146.908 609.438C149.574 610.317 151.781 612.219 153.045 614.725C154.309 617.231 154.525 620.137 153.647 622.803C152.768 625.469 150.866 627.676 148.36 628.94V628.94Z" fill="#FE654F"/>
<path d="M138.35 670.69C133.65 674.16 113.72 675.69 113.72 675.69C113.72 675.69 121.06 657.09 125.72 653.61C126.829 652.701 128.112 652.026 129.49 651.627C130.868 651.229 132.313 651.114 133.736 651.291C135.16 651.467 136.533 651.931 137.772 652.654C139.011 653.377 140.09 654.345 140.944 655.498C141.797 656.65 142.408 657.965 142.739 659.361C143.069 660.757 143.112 662.205 142.866 663.618C142.62 665.032 142.089 666.38 141.306 667.582C140.523 668.784 139.503 669.814 138.31 670.61L138.35 670.69Z" fill="#FE654F"/>
<path d="M105.62 588.12C109.81 592.19 129.35 596.41 129.35 596.41C129.35 596.41 124.56 577 120.35 572.93C119.361 571.92 118.181 571.117 116.877 570.571C115.574 570.024 114.174 569.744 112.76 569.746C111.347 569.749 109.948 570.035 108.647 570.586C107.346 571.138 106.168 571.945 105.183 572.959C104.198 573.973 103.427 575.174 102.913 576.491C102.4 577.808 102.156 579.214 102.195 580.627C102.233 582.04 102.555 583.431 103.14 584.718C103.724 586.005 104.561 587.162 105.6 588.12H105.62Z" fill="#FE654F"/>
<path d="M94.5501 637.09C99.7701 639.72 119.68 637.9 119.68 637.9C119.68 637.9 109.31 620.81 104.08 618.18C101.58 616.983 98.7109 616.814 96.0877 617.708C93.4646 618.603 91.2967 620.49 90.0493 622.965C88.802 625.44 88.5747 628.306 89.4161 630.947C90.2576 633.587 92.1008 635.793 94.5501 637.09Z" fill="#FE654F"/>
<path d="M90.29 686.16C94.99 689.64 114.92 691.16 114.92 691.16C114.92 691.16 107.58 672.56 102.92 669.09C101.811 668.181 100.528 667.506 99.1499 667.107C97.7718 666.709 96.3272 666.594 94.9036 666.771C93.4799 666.947 92.107 667.411 90.868 668.134C89.6291 668.857 88.55 669.825 87.6963 670.978C86.8425 672.13 86.2319 673.445 85.9014 674.841C85.5709 676.237 85.5275 677.685 85.7738 679.098C86.0201 680.511 86.551 681.86 87.3342 683.062C88.1174 684.264 89.1366 685.294 90.33 686.09L90.29 686.16Z" fill="#FE654F"/>
<path d="M86 712.69C86 712.69 103.11 709.29 107.67 704.76C112.23 700.23 132.77 692.3 135.05 697.97C137.33 703.64 165.85 722.88 146.46 726.28C127.07 729.68 100.83 730.81 95.12 728.55C89.41 726.29 86 712.69 86 712.69Z" fill="#A8A8A8"/>
<path opacity="0.2" d="M146.46 724.17C127.06 727.57 100.83 728.7 95.12 726.43C90.78 724.71 87.76 716.43 86.57 712.56L86 712.68C86 712.68 89.42 726.27 95.12 728.54C100.82 730.81 127.06 729.67 146.46 726.27C152.05 725.27 153.65 722.99 153.05 720.07C152.55 721.97 150.62 723.44 146.46 724.17Z" fill="black"/>
<path opacity="0.1" d="M344.82 814.24C384.14 827.45 432.11 819.41 476.72 820.35C482.83 820.48 489.3 820.86 494.2 823.14C499.1 825.42 501.5 829.14 504.86 832.3C517.37 844.08 542.98 847.88 565.37 845.87C587.76 843.86 608.29 837.25 629.37 832.21C665.89 823.49 707.64 819.53 743.66 829.03C746.97 829.9 750.45 830.9 753.99 830.55C761.89 829.78 764.24 823.45 769.77 819.84C779.77 813.32 801.39 815.09 805.77 806.5C808.34 801.5 802.43 796.29 796 792.86C771.39 779.69 736.17 777.52 703.94 779.56C671.71 781.6 640.04 787.18 607.65 787.2C567.3 787.2 528.31 778.62 488.35 775.1C460.67 772.65 430.46 772.96 404.51 780.1C376.44 787.93 370.24 805.37 344.82 814.24Z" fill="#FE654F"/>
<path d="M710.93 713.52C711.15 711.61 711.47 709.71 711.81 707.81C713.31 699.58 711.02 691.74 709.81 688.51C709.46 687.51 709.2 686.94 709.2 686.94C703.13 685.29 679.2 703.83 670.52 710.82C667.52 710.82 664.22 710.95 660.65 711.19C659.09 711.3 657.52 711.34 655.96 711.31C654.56 711.31 652.57 711.31 650.25 711.31C642.16 704.8 617.15 685.21 610.91 686.91C610.91 686.91 610.66 687.47 610.3 688.48C609.13 691.71 606.85 699.55 608.3 707.78C608.65 709.68 608.96 711.58 609.18 713.49C609.65 717.68 611.4 725.69 617.76 731.12C619.11 741.02 624.21 754.03 628.13 761.93C628.424 763.425 628.869 764.886 629.46 766.29C627.84 772.53 625.98 780.68 626.46 783.37C626.46 783.37 618.01 781.32 617.15 791.5C617.15 791.6 617.15 791.71 617.15 791.81C614.09 793.22 610.28 796.42 614.57 803.15C615.087 803.976 615.865 804.606 616.78 804.94C617.54 805.21 618.28 805.21 618.2 804.14L623.49 810.14C623.49 810.14 633.07 811.24 633.18 805.68L633.74 805.77C635.03 805.96 636.38 806.12 637.74 806.26L638.4 808.46C638.4 808.46 631.21 808.31 633.17 812.73C633.17 812.73 634.98 814.41 635.6 813.8C635.6 813.8 634.67 816.7 638.4 816.7C638.4 816.7 642.4 818.84 643.99 817.32C645.58 815.8 648.82 813.5 649.13 812.58C649.22 812.33 649.26 810.07 649.27 806.95H649.89C657.89 807.14 666.43 806.88 674.19 806.46H674.81C674.81 809.85 674.86 812.33 674.95 812.6C675.26 813.52 678.53 815.81 680.09 817.34C681.65 818.87 685.68 816.72 685.68 816.72C689.41 816.72 688.48 813.82 688.48 813.82C689.1 814.43 690.91 812.75 690.91 812.75C692.91 808.33 685.68 808.48 685.68 808.48L686.53 805.66L690.53 805.33L691.15 805.27C690.77 811.32 700.84 810.16 700.84 810.16L706.13 804.16C706.05 805.23 706.79 805.23 707.55 804.96C708.465 804.626 709.243 803.996 709.76 803.17C716.24 793.03 704.26 790.88 704.26 790.88C703.891 790.781 703.512 790.721 703.13 790.7C703.13 790.52 703.13 790.34 703.13 790.17C703.275 788.842 703.302 787.503 703.21 786.17C702.76 784.34 699.8 781.44 696.07 780.98C693.64 780.68 693.58 769.49 693.84 761.73C694.112 760.269 694.239 758.786 694.22 757.3C694.246 754.91 693.909 752.529 693.22 750.24C697.99 742.16 701.81 733.7 702.22 731.15C708.72 725.69 710.46 717.69 710.93 713.52Z" fill="url(#paint0_linear)"/>
<path d="M701.72 790.69C701.34 795.96 700.32 804.42 700.32 804.42C700.32 804.42 696.08 804.94 689.53 805.53L685.09 805.91C681.67 806.18 677.85 806.45 673.81 806.68C666.33 807.09 658.12 807.34 650.39 807.16C646.52 807.07 642.77 806.87 639.29 806.53C637.74 806.38 636.29 806.2 634.8 805.98C625.93 804.66 619.62 802.13 619.04 797.68C618.761 795.807 618.691 793.909 618.83 792.02C619.66 782.02 627.83 784.02 627.83 784.02C627.3 781.26 629.28 772.68 630.83 766.47C631.83 762.56 632.7 759.59 632.7 759.59L689.93 755.75H690.12C690.5 755.751 690.876 755.829 691.226 755.979C691.575 756.13 691.89 756.35 692.152 756.625C692.413 756.901 692.617 757.227 692.749 757.584C692.881 757.941 692.939 758.32 692.92 758.7C692.58 765.56 692.09 781.28 694.92 781.63C698.52 782.08 701.37 784.93 701.8 786.73C701.894 788.05 701.867 789.375 701.72 790.69V790.69Z" fill="#D3899B"/>
<path d="M653.1 715.34C653.1 715.34 631.52 741.34 621.1 734.13C620.85 733.96 620.61 733.78 620.38 733.6C613.38 728.3 611.55 719.78 611.07 715.45C610.86 713.57 610.56 711.71 610.23 709.84C608.78 701.76 610.99 694.07 612.11 690.89C612.45 689.89 612.69 689.36 612.69 689.36C619.93 687.36 653.1 715.34 653.1 715.34Z" fill="#D3899B"/>
<path d="M641.55 717.74C641.55 717.74 634.75 722.54 625.16 730.33C623.684 731.55 622.109 732.644 620.45 733.6C613.45 728.3 611.62 719.78 611.14 715.45C610.93 713.57 610.63 711.71 610.3 709.84C608.85 701.76 611.06 694.07 612.18 690.89C625.55 691.83 641.55 717.74 641.55 717.74Z" fill="#EEC5CD"/>
<path opacity="0.1" d="M634.12 715.18C634.12 715.18 630.49 717.74 625.37 721.9C624.579 722.562 623.736 723.161 622.85 723.69C619.12 720.86 618.14 716.31 617.85 714C617.74 713 617.58 712 617.4 711C616.893 707.599 617.237 704.126 618.4 700.89V700.89C625.6 701.35 634.12 715.18 634.12 715.18Z" fill="black"/>
<path d="M667.09 715.34C667.09 715.34 688.68 741.34 699.09 734.13L699.81 733.6C706.81 728.3 708.63 719.78 709.11 715.45C709.32 713.57 709.63 711.71 709.96 709.84C711.4 701.76 709.2 694.07 708.07 690.89C707.73 689.89 707.48 689.36 707.48 689.36C700.27 687.36 667.09 715.34 667.09 715.34Z" fill="#D3899B"/>
<path d="M678.68 717.74C678.68 717.74 685.48 722.54 695.07 730.33C696.551 731.548 698.129 732.642 699.79 733.6C706.79 728.3 708.61 719.78 709.09 715.45C709.3 713.57 709.61 711.71 709.94 709.84C711.38 701.76 709.18 694.07 708.05 690.89C694.64 691.83 678.68 717.74 678.68 717.74Z" fill="#EEC5CD"/>
<path opacity="0.1" d="M686.13 715.16C686.13 715.16 689.74 717.71 694.83 721.84C695.614 722.487 696.451 723.069 697.33 723.58C701.03 720.77 702.01 716.24 702.27 713.95C702.38 712.95 702.54 711.95 702.71 710.95C703.209 707.565 702.866 704.11 701.71 700.89C694.6 701.41 686.13 715.16 686.13 715.16Z" fill="black"/>
<path opacity="0.1" d="M689.95 755.77C687.23 760.08 684.33 763.97 681.68 766.3C673.09 773.89 636.12 770.9 633.68 770.5C633.18 770.42 632.13 768.92 630.81 766.5C631.81 762.59 632.68 759.62 632.68 759.62L689.95 755.77Z" fill="black"/>
<path d="M660.66 713.16C659.16 713.27 657.66 713.3 656.15 713.28C648.42 713.15 622.42 713.49 619.53 723.98C616.13 736.32 631.32 769.5 633.72 769.9C636.12 770.3 673.09 773.3 681.72 765.7C690.35 758.1 701.51 734.33 700.91 732.13C700.87 732.13 711.55 709.63 660.66 713.16Z" fill="#D3899B"/>
<path opacity="0.1" d="M659.85 733.23C659.85 733.23 640.85 730.3 631.85 749.04C630.063 752.678 629.277 756.726 629.572 760.768C629.868 764.81 631.234 768.7 633.53 772.04C636.53 776.22 640.86 779.33 646.93 776.82C660.44 771.27 659.85 733.23 659.85 733.23Z" fill="black"/>
<path opacity="0.1" d="M659.25 732.03C659.25 732.03 640.25 729.1 631.25 747.84C629.463 751.478 628.677 755.526 628.972 759.568C629.268 763.61 630.634 767.5 632.93 770.84C635.93 775.02 640.26 778.13 646.33 775.63C659.84 770.07 659.25 732.03 659.25 732.03Z" fill="black"/>
<path d="M659.25 732.63C659.25 732.63 640.25 729.7 631.25 748.44C629.463 752.078 628.677 756.126 628.972 760.168C629.268 764.21 630.634 768.1 632.93 771.44C635.93 775.62 640.26 778.73 646.33 776.22C659.84 770.69 659.25 732.63 659.25 732.63Z" fill="#EEC5CD"/>
<path d="M638.71 749.01C638.71 749.01 636.11 751.41 637.11 752.01C638.11 752.61 638.71 749.01 638.71 749.01Z" fill="#3F2B3B"/>
<path d="M641.55 752.08C641.55 752.08 640.14 755.21 641.14 755.56C642.14 755.91 642.75 753.31 642.75 753.31L641.55 752.08Z" fill="#3F2B3B"/>
<path d="M635.23 756.81C635.23 756.81 633.85 760.51 635.23 760.51C636.61 760.51 635.23 756.81 635.23 756.81Z" fill="#3F2B3B"/>
<path d="M633.55 766.69C633.55 766.69 636.32 773.79 643.55 773.29" stroke="#3F2B3B" stroke-miterlimit="10"/>
<path d="M640.01 768.8C640.01 768.8 642.91 771.6 646.01 769.6" stroke="#3F2B3B" stroke-miterlimit="10"/>
<path opacity="0.1" d="M662.25 733.23C662.25 733.23 681.25 730.3 690.25 749.04C692.041 752.677 692.829 756.725 692.534 760.768C692.239 764.811 690.87 768.702 688.57 772.04C685.57 776.22 681.24 779.33 675.18 776.82C661.65 771.27 662.25 733.23 662.25 733.23Z" fill="black"/>
<path opacity="0.1" d="M662.85 732.03C662.85 732.03 681.85 729.1 690.85 747.84C692.641 751.477 693.429 755.525 693.134 759.568C692.839 763.611 691.47 767.502 689.17 770.84C686.17 775.02 681.84 778.13 675.78 775.63C662.25 770.07 662.85 732.03 662.85 732.03Z" fill="black"/>
<path d="M662.85 732.63C662.85 732.63 681.85 729.7 690.85 748.44C692.641 752.077 693.429 756.125 693.134 760.168C692.839 764.211 691.47 768.102 689.17 771.44C686.17 775.62 681.84 778.73 675.78 776.22C662.25 770.69 662.85 732.63 662.85 732.63Z" fill="#EEC5CD"/>
<path d="M683.38 749.01C683.38 749.01 685.98 751.41 684.98 752.01C683.98 752.61 683.38 749.01 683.38 749.01Z" fill="#3F2B3B"/>
<path d="M680.55 752.08C680.55 752.08 681.97 755.21 680.96 755.56C679.95 755.91 679.35 753.31 679.35 753.31L680.55 752.08Z" fill="#3F2B3B"/>
<path d="M686.86 756.81C686.86 756.81 688.24 760.51 686.86 760.51C685.48 760.51 686.86 756.81 686.86 756.81Z" fill="#3F2B3B"/>
<path d="M688.55 766.69C688.55 766.69 685.77 773.79 678.55 773.29" stroke="#3F2B3B" stroke-miterlimit="10"/>
<path d="M682.08 768.8C682.08 768.8 679.18 771.6 676.08 769.6" stroke="#3F2B3B" stroke-miterlimit="10"/>
<path d="M652 786.89C652.5 786.79 662 782.69 671.79 786.89H652Z" fill="#3F2B3B"/>
<path opacity="0.1" d="M634.8 805.98C625.93 804.66 619.62 802.13 619.04 797.68C618.761 795.807 618.691 793.909 618.83 792.02C619.897 791.452 621.038 791.035 622.22 790.78C623.83 790.33 625.82 790.63 630.02 791.78C634.22 792.93 633.92 797.93 634.82 804.37C634.9 804.904 634.894 805.448 634.8 805.98V805.98Z" fill="black"/>
<path d="M621.63 791.38C621.63 791.38 610.08 793.5 616.33 803.45C616.823 804.259 617.573 804.878 618.46 805.21C619.19 805.47 619.9 805.47 619.83 804.42L624.92 810.27C624.92 810.27 635.12 811.47 634.22 805.02C633.32 798.57 633.62 793.63 629.42 792.43C625.22 791.23 623.23 790.93 621.63 791.38Z" fill="#D3899B"/>
<path d="M624.37 798.08C624.37 798.08 626.82 803.68 630.22 798.98" stroke="#3F2B3B" stroke-miterlimit="10"/>
<path d="M618.76 800.28C618.76 800.28 620.03 805.56 624.82 801.62" stroke="#3F2B3B" stroke-miterlimit="10"/>
<path opacity="0.1" d="M701.72 790.69C701.34 795.96 700.32 804.42 700.32 804.42C700.32 804.42 696.08 804.94 689.53 805.53C689.496 805.161 689.496 804.789 689.53 804.42C690.43 797.98 690.13 793.03 694.33 791.83C698.19 790.74 700.19 790.39 701.72 790.69Z" fill="black"/>
<path d="M702.77 791.38C702.77 791.38 714.31 793.5 708.07 803.45C707.57 804.257 706.818 804.876 705.93 805.21C705.2 805.47 704.49 805.47 704.57 804.42L699.47 810.27C699.47 810.27 689.28 811.47 690.18 805.02C691.08 798.57 690.78 793.63 694.97 792.43C699.16 791.23 701.16 790.93 702.77 791.38Z" fill="#D3899B"/>
<path d="M700.02 798.08C700.02 798.08 697.57 803.68 694.17 798.98" stroke="#3F2B3B" stroke-miterlimit="10"/>
<path d="M705.64 800.28C705.64 800.28 704.37 805.56 699.57 801.62" stroke="#3F2B3B" stroke-miterlimit="10"/>
<path opacity="0.1" d="M650.39 807.16C646.52 807.07 642.77 806.87 639.29 806.53L635.84 794.89C635.537 793.876 635.455 792.808 635.6 791.759C635.745 790.71 636.113 789.705 636.68 788.81C637.247 787.916 637.999 787.154 638.886 786.575C639.772 785.997 640.773 785.615 641.82 785.456C642.866 785.297 643.935 785.365 644.954 785.654C645.972 785.943 646.916 786.448 647.723 787.134C648.53 787.82 649.18 788.67 649.63 789.629C650.079 790.587 650.318 791.631 650.33 792.69C650.36 797.26 650.4 803 650.39 807.16Z" fill="black"/>
<path d="M635.24 794.89L639.31 808.62C639.31 808.62 632.38 808.47 634.31 812.82C634.31 812.82 636.05 814.47 636.65 813.82C636.65 813.82 635.76 816.67 639.35 816.67C639.35 816.67 643.24 818.76 644.74 817.27C646.24 815.78 649.4 813.52 649.74 812.62C649.93 812.03 649.87 800.55 649.81 792.62C649.792 790.67 649.004 788.805 647.618 787.433C646.232 786.06 644.361 785.29 642.41 785.29C641.24 785.271 640.083 785.53 639.033 786.046C637.983 786.562 637.071 787.32 636.371 788.257C635.671 789.194 635.203 790.284 635.007 791.437C634.81 792.59 634.89 793.774 635.24 794.89Z" fill="#D3899B"/>
<path d="M640.74 812.17C640.74 812.17 637.74 815.07 639.31 816.72" stroke="#3F2B3B" stroke-miterlimit="10"/>
<path d="M639.41 810.36C639.41 810.36 636.61 811.27 636.61 813.87" stroke="#3F2B3B" stroke-miterlimit="10"/>
<path opacity="0.1" d="M688.67 792.78C688.669 793.495 688.564 794.205 688.36 794.89L685.09 805.89C681.67 806.16 677.85 806.43 673.81 806.66C673.81 802.55 673.81 797.07 673.87 792.66C673.878 790.697 674.665 788.818 676.059 787.436C677.452 786.054 679.337 785.282 681.3 785.29C683.263 785.298 685.142 786.085 686.524 787.479C687.906 788.872 688.678 790.757 688.67 792.72V792.78Z" fill="black"/>
<path d="M688.95 794.89L684.88 808.62C684.88 808.62 691.81 808.47 689.88 812.82C689.88 812.82 688.14 814.47 687.54 813.82C687.54 813.82 688.44 816.67 684.84 816.67C684.84 816.67 680.96 818.76 679.45 817.27C677.94 815.78 674.8 813.52 674.45 812.62C674.25 812.03 674.31 800.55 674.38 792.62C674.396 790.67 675.181 788.806 676.566 787.433C677.95 786.06 679.82 785.29 681.77 785.29V785.29C682.94 785.27 684.099 785.528 685.15 786.043C686.201 786.558 687.115 787.315 687.816 788.253C688.518 789.19 688.986 790.281 689.183 791.435C689.38 792.589 689.3 793.773 688.95 794.89V794.89Z" fill="#D3899B"/>
<path d="M683.45 812.17C683.45 812.17 686.45 815.07 684.88 816.72" stroke="#3F2B3B" stroke-miterlimit="10"/>
<path d="M684.78 810.36C684.78 810.36 687.58 811.27 687.58 813.87" stroke="#3F2B3B" stroke-miterlimit="10"/>
<path opacity="0.1" d="M659.25 729.63C659.25 729.63 645.16 729.18 644.71 740.12C644.26 751.06 666.71 746.42 666.71 746.42C666.71 746.42 676.16 745.15 674.51 738.51C672.86 731.87 669.45 730.23 659.25 729.63Z" fill="black"/>
<path opacity="0.1" d="M659.25 728.43C659.25 728.43 645.16 727.98 644.71 738.92C644.26 749.86 666.71 745.22 666.71 745.22C666.71 745.22 676.16 743.95 674.51 737.31C672.86 730.67 669.45 729.03 659.25 728.43Z" fill="black"/>
<path d="M659.25 729.03C659.25 729.03 645.16 728.58 644.71 739.52C644.26 750.46 666.71 745.82 666.71 745.82C666.71 745.82 676.16 744.55 674.51 737.91C672.86 731.27 669.45 729.63 659.25 729.03Z" fill="#3F2B3B"/>
<path opacity="0.1" d="M627.8 784.04C627.8 784.04 632.52 785.74 633.48 788.98Z" fill="black"/>
<path opacity="0.1" d="M694.92 781.69C694.92 781.69 691.54 783.11 691.77 789.03Z" fill="black"/>
<path d="M629.622 808.682C630.674 808.074 630.712 806.171 629.707 804.43C628.702 802.689 627.034 801.77 625.982 802.377C624.929 802.985 624.891 804.889 625.896 806.63C626.902 808.371 628.569 809.289 629.622 808.682Z" fill="#EEC5CD"/>
<path d="M702.015 803.661C703.02 801.912 702.978 800.002 701.921 799.394C700.864 798.787 699.192 799.712 698.187 801.461C697.182 803.21 697.224 805.121 698.281 805.728C699.338 806.336 701.01 805.41 702.015 803.661Z" fill="#EEC5CD"/>
<path d="M631.86 407.1C628.61 406.04 609.48 391.21 608.04 384.5C606.6 377.79 618.14 315.3 618.14 315.3C618.14 315.3 617.08 315.25 615.38 315.09V314.09L617.75 231.98C617.75 231.98 627.49 176.91 609.09 180.08C590.69 183.25 602.23 231.98 602.23 231.98C602.23 231.98 600.13 256.7 598.66 264.12C597.23 271.26 590.81 300.38 595.2 309.43C595.355 309.754 595.536 310.065 595.74 310.36V310.36C595.74 310.36 596.46 341.42 588.52 345.66C580.94 349.66 577.79 370.02 577.52 371.85L577.12 371.67C574.862 370.29 572.87 368.515 571.24 366.43C571.09 366.22 570.95 365.99 570.8 365.77C575.964 360.114 578.757 352.691 578.603 345.034C578.448 337.377 575.358 330.073 569.97 324.63L569.22 323.9C569.84 323.285 570.297 322.526 570.55 321.69C571.95 317.47 567.11 314.08 564.6 311.44C558.79 305.26 553.55 297.69 545.45 294.19C547.771 295.507 549.921 297.105 551.85 298.95C549.405 296.841 546.605 295.182 543.58 294.05C535.1 291.05 525.34 293.53 517.94 298.59C510.54 303.65 505.07 310.94 500.07 318.29L497.65 321.89C495.532 319.51 493.224 317.307 490.75 315.3C486.06 311.77 476.68 300.12 476.68 300.12C476.68 300.12 447.45 270.46 445.28 262.34C443.11 254.22 413.89 205.49 407.39 213.97C400.89 222.45 429.76 259.51 429.76 259.51C429.76 259.51 435.18 272.93 439.51 277.51C443.84 282.09 475.95 328 475.95 328L478.67 333.5L479.18 334.5L478.84 334.31V341.02L481.84 341.29C480.508 342.47 479.289 343.772 478.2 345.18C476.571 347.546 475.36 350.174 474.62 352.95C469.89 368.58 471.82 385.69 477.92 400.86C479.18 403.98 480.62 407.09 481 410.42C481.55 415.08 480 419.69 479.06 424.3C477.76 430.77 477.81 437.82 481.06 443.59C485.41 451.25 495.16 455.24 504 453.81C508.035 453.129 511.851 451.505 515.14 449.07C519.282 446.195 522.624 442.313 524.85 437.79C526.5 434.42 527.53 430.79 529.17 427.41C529.48 426.76 529.83 426.14 530.17 425.51C533.91 429.7 537.27 433.51 537.27 433.51C537.27 433.51 545.21 471.64 538.35 482.23C534.702 487.559 530.284 492.317 525.24 496.35C523.967 497.398 522.798 498.567 521.75 499.84C521.07 500.33 520.67 500.59 520.67 500.59C520.67 500.59 520.49 501.1 520.23 501.88C518.62 504.246 517.454 506.886 516.79 509.67C516.541 510.382 516.453 511.14 516.53 511.89C517.02 512.89 513 516.89 514.18 518.6C504.18 530.1 502.26 547.54 502.26 547.54L484.03 574.73C474.65 598.91 460.58 601.39 460.58 601.39C460.58 601.39 427.58 579.67 426.65 578.61C425.72 577.55 413.12 572.26 413.12 572.26C411.624 569.683 409.353 567.642 406.63 566.43C402.3 564.67 401.94 558.14 401.94 558.14C401.4 542.78 392.19 541.54 392.19 541.54C384.77 540.93 379.09 542.22 374.74 544.59L373.42 544.69C367.03 545.2 359.33 545.76 350.87 546.31C327.4 547.83 321.82 562.73 321.82 562.73C321.82 562.73 318.93 565.9 322.72 569.34C326.51 572.78 350.72 569.4 351.72 569.26C349.876 569.463 348.01 569.338 346.21 568.89C350.03 568.75 355.27 568.62 359.73 568.61H360.82C360.539 570.933 360.405 573.271 360.42 575.61C360.42 580.03 372.87 582.85 372.87 582.85L410.76 615.85C410.76 615.85 434.58 626.27 449.76 641.27C464.94 656.27 478.27 643.39 478.27 643.39C494.27 639.51 540.48 584.84 540.52 584.79C540.52 586.47 541.52 639.56 543.36 650.23C543.431 650.77 543.566 651.301 543.76 651.81C545.93 656.41 543.04 668.94 541.76 674.24C540.48 679.54 540.85 687.65 540.85 687.65C540.85 687.65 523.55 752.57 525.04 758.22C526.53 763.87 515.65 790.35 515.65 790.35V812.41C515.65 812.41 516.34 812.41 517.54 812.32C517.291 812.669 517.064 813.033 516.86 813.41C516.815 813.487 516.775 813.567 516.74 813.65C516.74 813.65 528.28 816.12 536.04 815.41C543.8 814.7 557.15 821.28 557.15 821.28C557.15 821.28 561.67 823.36 575.56 824.28C589.45 825.2 589.45 818.28 589.45 818.28C587.85 808.89 565.92 805.76 565.23 805.67C563.46 804.58 561.8 803.39 560.44 802.37L560.15 802.14C560.254 801.939 560.337 801.728 560.4 801.51C562.75 792.15 549.76 788.09 549.76 788.09V785.8C558.23 781.56 559.86 752.43 559.86 752.43C559.86 752.43 572.49 716.43 574.29 710.43C576.09 704.43 574.29 695.43 574.29 695.43L575.56 687.67C575.56 687.67 578.26 682.37 578.26 681.31C578.618 678.614 579.677 676.059 581.33 673.9C583.33 671.6 579.17 666.13 579.17 666.13L582.78 656.95V646.83L591.25 610.29C591.25 610.29 600.1 567.74 597.03 553.79C593.96 539.84 600.64 532.79 600.64 532.79C600.036 533.1 599.415 533.377 598.78 533.62C599.632 531.711 600.363 529.75 600.97 527.75L619.97 530.06C619.97 530.22 619.97 530.33 619.97 530.33H626.82C626.82 530.33 624.66 504.2 624.66 493.61C624.66 483.02 631.88 445.24 631.88 445.24C631.88 445.24 635.1 408.16 631.86 407.1ZM547.6 376.1C547.6 376.25 547.6 376.39 547.6 376.53C547.6 377.53 547.5 378.64 547.43 379.73L547.05 380.31L546.36 379.72L545.49 381.03C545.338 380.201 545.394 379.347 545.652 378.544C545.91 377.741 546.363 377.015 546.97 376.43C547.173 376.31 547.383 376.203 547.6 376.11V376.1ZM610.72 498.43H611.14L610.46 500.15C610.55 499.59 610.63 499.02 610.72 498.44V498.43ZM541.41 810.83L538.82 810.2L540.26 809.96L541.56 810.81L541.72 810.91L541.41 810.83ZM567.85 807.13C566.99 806.68 566.12 806.13 565.28 805.65C565.55 805.8 566.66 806.37 567.85 807.13V807.13Z" fill="url(#paint1_linear)"/>
<path d="M617.03 472L600.48 515.12L598.16 513.22L588.94 527.53L617.03 531.03V472Z" fill="#F1D2D7"/>
<path opacity="0.1" d="M617.01 472L600.45 515.12L596.29 514L588.91 527.53L617.01 531.03V472Z" fill="black"/>
<path d="M591.09 499.59H617.03L626.55 421.23H591.09V499.59Z" fill="#F1D2D7"/>
<path opacity="0.1" d="M591.09 499.59H617.03L626.55 421.23H591.09V499.59Z" fill="black"/>
<path d="M540.42 439.79L546.01 438.79L558.88 436.69C558.88 436.69 597.53 427.99 605.54 427.29C610.54 426.85 616.07 424.79 619.54 423.29C621.63 422.4 622.96 421.71 622.96 421.71L609.04 396.28L587.44 380.28C587.44 380.28 573.78 377.37 567.99 369.42C566.704 367.708 565.866 365.701 565.554 363.582C565.241 361.464 565.463 359.301 566.2 357.29C569.73 346.35 545.14 367.74 545.14 367.74C545.14 367.74 545.38 372.86 545.14 379.39C545.14 380.68 545.02 382.02 544.93 383.39C544.87 384.29 544.79 385.19 544.71 386.11C544.1 392.59 542.87 399.27 540.45 403.26C534.55 412.97 540.42 439.79 540.42 439.79Z" fill="#FFBEC7"/>
<path opacity="0.1" d="M545.12 379.88H545.66C546.66 379.88 547.43 377.8 548.39 377.7C556.08 376.96 563.1 375.35 567.98 369.91C566.696 368.197 565.86 366.19 565.548 364.072C565.235 361.954 565.456 359.791 566.19 357.78C569.72 346.84 545.19 368.22 545.19 368.22C545.19 368.22 545.38 373.34 545.12 379.88Z" fill="black"/>
<path d="M515.19 348.89C515.203 356.838 518.37 364.456 523.994 370.071C529.619 375.686 537.242 378.84 545.19 378.84C546.165 378.84 547.14 378.79 548.11 378.69C553.882 378.125 559.365 375.896 563.894 372.274C568.424 368.652 571.804 363.793 573.625 358.287C575.446 352.781 575.629 346.864 574.153 341.256C572.676 335.648 569.603 330.589 565.306 326.694C561.01 322.799 555.675 320.235 549.949 319.313C544.223 318.392 538.353 319.152 533.052 321.503C527.75 323.853 523.245 327.692 520.083 332.554C516.921 337.416 515.239 343.091 515.24 348.89H515.19Z" fill="#FFBEC7"/>
<path opacity="0.1" d="M515.19 348.89C515.203 356.838 518.37 364.456 523.994 370.071C529.619 375.686 537.242 378.84 545.19 378.84C546.165 378.84 547.14 378.79 548.11 378.69C548.643 378.471 549.116 378.128 549.49 377.69C549.838 377.157 550.067 376.554 550.16 375.924C550.253 375.294 550.209 374.651 550.03 374.04C548.85 368.19 543.54 363.99 541.63 358.33C539.95 353.33 541.21 347.66 543.79 343.04C546.37 338.42 550.18 334.61 553.94 330.87C554.571 330.136 555.366 329.561 556.26 329.19C559.46 328.19 564.26 330.99 566.8 328.13C562.652 323.843 557.32 320.89 551.485 319.648C545.651 318.406 539.578 318.932 534.044 321.158C528.51 323.384 523.765 327.21 520.415 332.146C517.066 337.082 515.264 342.905 515.24 348.87L515.19 348.89Z" fill="black"/>
<path d="M555.16 328.69C554.264 329.057 553.468 329.633 552.84 330.37C549.09 334.11 545.28 337.91 542.7 342.54C540.12 347.17 538.86 352.8 540.54 357.82C542.44 363.49 547.76 367.69 548.93 373.54C549.109 374.15 549.153 374.791 549.06 375.419C548.967 376.048 548.738 376.648 548.39 377.18C547.39 378.43 545.49 378.5 544.19 379.44C542.53 380.65 542.19 383.05 542.69 385.04C543.367 386.977 544.291 388.819 545.44 390.52C548.24 395.47 549.44 401.91 546.44 406.72C545.026 408.683 543.343 410.437 541.44 411.93C538.288 414.729 535.371 417.782 532.72 421.06C530.435 423.786 528.481 426.774 526.9 429.96C525.32 433.29 524.32 436.88 522.73 440.21C519 448 511.66 454.21 503.13 455.62C494.6 457.03 485.19 453.09 481 445.54C477.84 439.84 477.8 432.89 479.05 426.54C479.94 422 481.45 417.45 480.93 412.85C480.55 409.57 479.16 406.5 477.93 403.42C472.05 388.42 470.18 371.58 474.74 356.16C475.455 353.427 476.625 350.835 478.2 348.49C479.856 346.442 481.682 344.539 483.66 342.8C489.89 336.71 494.48 329.18 499.31 321.93C504.14 314.68 509.4 307.48 516.55 302.49C523.7 297.5 533.11 295.03 541.29 298.02C549.85 301.15 555.14 309.13 561.08 315.55C563.49 318.17 568.17 321.5 566.82 325.67C564.85 331.55 558.91 327.51 555.16 328.69Z" fill="#493545"/>
<path opacity="0.1" d="M501.55 454.19C510.07 452.78 517.41 446.57 521.14 438.77C522.74 435.45 523.73 431.86 525.32 428.53C526.898 425.344 528.849 422.357 531.13 419.63C533.787 416.352 536.707 413.295 539.86 410.49C541.766 409 543.45 407.246 544.86 405.28C547.86 400.47 546.71 394.03 543.92 389.09C542.772 387.384 541.845 385.539 541.16 383.6C540.64 381.6 541 379.21 542.66 378.01C543.97 377.07 545.85 377.01 546.87 375.75C547.218 375.219 547.447 374.618 547.54 373.989C547.633 373.361 547.589 372.72 547.41 372.11C546.23 366.25 540.91 362.06 539.01 356.39C537.33 351.39 538.58 345.73 541.17 341.1C543.76 336.47 547.55 332.69 551.27 328.93C551.904 328.198 552.703 327.626 553.6 327.26C557.34 326.08 563.29 330.12 565.21 324.21C566.56 320.04 561.88 316.7 559.47 314.09C554.36 308.56 549.72 301.88 543.06 298.09C550.87 301.51 555.93 309 561.56 315.09C563.97 317.7 568.65 321.03 567.3 325.2C565.38 331.11 559.43 327.07 555.69 328.25C554.792 328.619 553.994 329.195 553.36 329.93C549.61 333.67 545.81 337.47 543.22 342.1C540.63 346.73 539.38 352.36 541.06 357.39C542.96 363.05 548.28 367.25 549.46 373.1C549.639 373.71 549.683 374.351 549.59 374.979C549.497 375.608 549.268 376.208 548.92 376.74C547.92 377.99 546.01 378.06 544.71 379.01C543.05 380.21 542.71 382.61 543.21 384.6C543.886 386.54 544.814 388.382 545.97 390.08C548.76 395.03 549.97 401.47 546.91 406.28C545.497 408.243 543.814 409.997 541.91 411.49C538.759 414.294 535.84 417.347 533.18 420.62C530.9 423.348 528.95 426.335 527.37 429.52C525.78 432.86 524.79 436.44 523.19 439.77C519.46 447.56 512.12 453.77 503.6 455.18C498.563 455.97 493.407 455.032 488.97 452.52C492.917 454.269 497.283 454.849 501.55 454.19V454.19Z" fill="black"/>
<path d="M533.28 803.69L538.51 807.14L539.3 807.67L539.46 807.78L545.65 811.87L560.09 814.31L572.81 813.44C572.81 813.44 576.47 805.78 570.72 805.95C568.875 805.862 567.075 805.348 565.46 804.45L564.68 804.04C563.85 803.6 563.01 803.11 562.2 802.59C560.5 801.51 558.89 800.34 557.58 799.33C555.68 797.86 554.41 796.74 554.41 796.74L533.28 803.69Z" fill="#FFBEC7"/>
<path opacity="0.1" d="M538.55 807.16L539.34 807.69L539.5 807.8L545.69 811.89L560.13 814.33L572.85 813.46C572.85 813.46 576.51 805.8 570.76 805.97C568.915 805.882 567.115 805.368 565.5 804.47C566.421 805.005 567.128 805.842 567.5 806.84C567.73 808.84 558.1 812.34 558.1 812.34L544.51 808.75C544.51 808.75 542.2 808.1 539.03 807.28L538.73 807.2L538.55 807.16Z" fill="black"/>
<path d="M515.35 810.5C515.35 810.5 526.49 812.93 533.98 812.24C541.47 811.55 554.35 818.02 554.35 818.02C554.35 818.02 558.71 820.02 572.11 820.95C585.51 821.88 585.55 815.02 585.55 815.02C584.01 805.77 562.84 802.67 562.17 802.59C562.44 802.73 563.51 803.3 564.65 804.04C566.15 805.04 567.78 806.31 567.9 807.34C568.13 809.34 558.5 812.84 558.5 812.84L544.92 809.26C544.92 809.26 542.61 808.6 539.43 807.78L539.13 807.7C534.45 806.407 529.694 805.405 524.89 804.7C519.04 804.08 516.04 809.06 515.43 810.21C515.38 810.42 515.35 810.5 515.35 810.5Z" fill="#BD577A"/>
<path d="M339.83 564.81L345.75 569.34C345.75 569.34 347.47 569.26 350.03 569.17H350.85C354.53 569.04 359.59 568.91 363.9 568.9C367.9 568.9 371.22 569.02 372.22 569.37C375.22 570.37 380.4 552.48 380.4 552.48L374.46 551.08L372.46 550.62L371.08 550.3L366.26 549.17L351.63 550.82L341.36 557.44L339.83 564.81Z" fill="#FFBEC7"/>
<path opacity="0.1" d="M339.83 564.81L345.75 569.34C345.75 569.34 347.47 569.26 350.03 569.17C348.859 568.71 347.896 567.839 347.32 566.72C343.49 556.1 362.47 551.58 362.47 551.58L371.31 551.19L373.02 551.12L374.46 551.05L372.46 550.59L371.08 550.27L366.26 549.14L351.63 550.79L341.36 557.41L339.83 564.81Z" fill="black"/>
<path d="M328.16 569.59C331.74 572.91 355.16 569.65 356.16 569.51C354.379 569.714 352.576 569.588 350.84 569.14C347.57 568.22 346.78 566.2 346.78 566.2C342.96 555.58 361.93 551.05 361.93 551.05L370.78 550.67L372.49 550.59L393.97 549.66L395.02 543.74C395.02 543.74 388.02 544.41 377.08 545.28C370.91 545.78 363.47 546.34 355.32 546.87C332.67 548.37 327.32 563.07 327.32 563.07C327.32 563.07 324.55 566.2 328.16 569.59Z" fill="#BD577A"/>
<path d="M591.1 313.15C591.248 313.469 591.418 313.776 591.61 314.07L596.84 321.73L610.42 323.13L610.57 317.75L612.85 236.75C612.85 236.75 622.26 182.42 604.5 185.56C586.74 188.7 597.88 236.75 597.88 236.75C597.88 236.75 595.88 261.13 594.43 268.44C593.06 275.5 586.86 304.22 591.1 313.15Z" fill="#FFBEC7"/>
<path d="M560.62 514.31L564.48 520.93L573.13 535.73C573.13 535.73 588.83 541.48 592.83 537.12C595.04 534.72 597.41 526.39 599.08 519.4C600.45 513.71 601.36 508.91 601.36 508.91L560.62 514.31Z" fill="#FFBEC7"/>
<path opacity="0.1" d="M560.62 514.31L564.48 520.93C564.726 520.719 564.95 520.485 565.15 520.23C569.51 514.65 588.76 519.05 599.08 519.4C600.45 513.71 601.36 508.91 601.36 508.91L560.62 514.31Z" fill="black"/>
<path opacity="0.1" d="M363.9 568.87C367.9 568.87 371.22 568.99 372.22 569.34C375.22 570.34 380.4 552.45 380.4 552.45L372.55 550.59L394.03 549.66L395.08 543.74C395.08 543.74 388.08 544.41 377.14 545.28C374.86 546.578 372.828 548.271 371.14 550.28L370.81 550.68C366.24 556.29 364.55 563.53 363.9 568.87Z" fill="black"/>
<path opacity="0.1" d="M533.28 803.69L539.28 807.69C548.28 806.07 556.49 803.52 557.46 799.53C557.464 799.463 557.464 799.397 557.46 799.33C555.56 797.86 554.29 796.74 554.29 796.74L533.28 803.69Z" fill="black"/>
<path opacity="0.1" d="M515.46 810.26C523.403 809.874 531.316 809.026 539.16 807.72C534.48 806.427 529.724 805.425 524.92 804.72C519.07 804.13 516.07 809.11 515.46 810.26Z" fill="black"/>
<path d="M364.55 575.78C364.55 580.13 376.55 582.92 376.55 582.92L413.12 615.48C413.12 615.48 436.12 625.75 450.73 640.55C465.34 655.35 478.26 642.69 478.26 642.69C493.75 638.86 538.33 584.88 538.33 584.88C538.33 584.88 539.38 646.52 541.47 651.05C543.56 655.58 540.77 667.94 539.55 673.17C538.33 678.4 538.68 686.4 538.68 686.4C538.68 686.4 521.96 750.3 523.36 755.87C524.76 761.44 514.3 787.56 514.3 787.56V809.33C514.3 809.33 555.22 807.76 557.48 798.53C559.74 789.3 547.21 785.3 547.21 785.3V782.99C555.39 778.81 556.96 750.08 556.96 750.08C556.96 750.08 569.15 714.55 570.89 708.69C572.63 702.83 570.89 693.88 570.89 693.88L572.11 686.22C572.11 686.22 574.72 681 574.72 679.96C575.073 677.302 576.106 674.781 577.72 672.64C579.64 670.38 575.63 664.98 575.63 664.98L579.12 655.98V646.05L587.3 610.05C587.3 610.05 595.83 568.05 592.87 554.33C589.91 540.61 596.36 533.6 596.36 533.6C582.36 540.94 575.36 524.6 573.03 517.6C572.43 515.79 572.15 514.6 572.15 514.6C572.15 514.6 552.96 507.52 535.08 509.2C531.453 509.506 527.878 510.265 524.44 511.46C504.59 518.6 501.44 548.2 501.44 548.2L483.85 575.02C474.85 598.87 461.21 601.31 461.21 601.31C461.21 601.31 429.35 579.89 428.48 578.85C427.61 577.81 415.42 572.58 415.42 572.58C413.987 570.052 411.793 568.04 409.15 566.83C404.97 565.09 404.63 558.65 404.63 558.65C404.1 543.5 395.22 542.28 395.22 542.28C364.38 539.56 364.55 571.43 364.55 575.78Z" fill="#E7AEB8"/>
<path d="M541.81 490.63H560.62V432.3H541.81V490.63Z" fill="#F1D2D7"/>
<path opacity="0.1" d="M540.07 488.24H558.88V429.91H540.07V488.24Z" fill="black"/>
<path opacity="0.1" d="M591.09 313.02C591.088 313.063 591.088 313.107 591.09 313.15C591.238 313.469 591.408 313.776 591.6 314.07L596.83 321.73L610.41 323.13L610.56 317.75C606.32 317.38 596.68 316.22 591.09 313.02Z" fill="black"/>
<path d="M591.61 314.07C591.61 314.07 592.31 344.71 584.61 348.89C576.91 353.07 573.97 374.89 573.97 374.89C573.97 374.89 597.15 390.17 602.37 396.89C607.59 403.61 619.43 419.62 617 423.45C614.57 427.28 622.96 444.69 622.96 444.69C622.96 444.69 607.63 476.04 611.12 487.88C614.61 499.72 614.95 531.06 614.95 531.06H621.55C621.55 531.06 619.46 505.29 619.46 494.84C619.46 484.39 626.46 447.13 626.46 447.13C626.46 447.13 629.59 410.56 626.46 409.52C623.33 408.48 604.87 393.85 603.46 387.23C602.05 380.61 613.21 318.97 613.21 318.97C613.21 318.97 598.93 318.25 591.61 314.07Z" fill="#F1D2D7"/>
<path opacity="0.1" d="M541.47 426.9C542.098 431.162 543.648 435.237 546.01 438.84L558.88 436.69C558.88 436.69 597.53 427.99 605.54 427.29C610.54 426.85 616.07 424.79 619.54 423.29C616.481 412.438 610.5 402.635 602.25 394.95L597.34 390.4C590.102 383.704 581.732 378.347 572.62 374.58C573.19 375.07 613.74 409.69 604.86 416.48C595.98 423.27 572.09 406.69 572.09 406.69L544.9 383.33L543.9 382.48L542.32 384.92C543.124 385.253 543.908 385.63 544.67 386.05C553.914 391.147 560.769 399.691 563.74 409.82C569.35 428.62 541.47 426.9 541.47 426.9Z" fill="black"/>
<path opacity="0.1" d="M533.11 513.96C533.11 513.96 558.88 528.24 565.11 520.23C566.49 518.47 569.35 517.7 572.95 517.49C572.35 515.68 572.07 514.49 572.07 514.49C572.07 514.49 552.88 507.41 535 509.09C533.85 512.06 533.11 513.96 533.11 513.96Z" fill="black"/>
<path d="M544.96 382.5L573.13 406.69C573.13 406.69 596.95 423.29 605.89 416.45C614.83 409.61 573.65 374.54 573.65 374.54C582.768 378.302 591.142 383.659 598.38 390.36L603.29 394.91C616.19 406.86 619.1 406.86 619.53 424.44C619.64 428.76 618.17 434.98 617.04 436.11C612.86 440.25 609.92 469.97 610.57 473.45C611.22 476.93 602.76 506.99 605.57 515.35C608.38 523.71 571.45 511.17 565.18 519.18C558.91 527.19 533.18 512.91 533.18 512.91C533.18 512.91 547.46 476.34 550.94 473.91C554.42 471.48 558.6 452.66 550.94 443.91C543.28 435.16 542.55 426.9 542.55 426.9C542.55 426.9 570.43 428.63 564.84 409.84C563.268 404.394 560.541 399.352 556.845 395.055C553.148 390.758 548.569 387.308 543.42 384.94L544.96 382.5Z" fill="#E8E8F0"/>
<path opacity="0.1" d="M582.55 444.14C582.55 444.14 571.75 464.52 557.76 469.81C557.32 469.97 556.88 470.12 556.43 470.26C541.81 474.69 583.6 450.41 582.55 444.14Z" fill="black"/>
<path d="M431.42 263.92C431.42 263.92 436.64 277.16 440.82 281.68C445 286.2 475.99 331.48 475.99 331.48L478.62 336.91L480.87 341.58L500.72 339.49L502.11 331.49L501.35 330.56C499.35 328.17 493.92 321.75 490.27 318.95C485.75 315.47 476.69 303.95 476.69 303.95C476.69 303.95 448.48 274.69 446.4 266.69C444.32 258.69 416.1 210.62 409.83 218.98C403.56 227.34 431.42 263.92 431.42 263.92Z" fill="#FFBEC7"/>
<path opacity="0.1" d="M478.62 336.91L480.87 341.58L500.72 339.49L502.11 331.49L501.35 330.56C499.21 331.61 483.34 339.22 478.62 336.91Z" fill="black"/>
<path opacity="0.1" d="M551.91 389.29C551.91 389.29 547.04 381.63 544.25 383.72C541.46 385.81 540.38 377.45 538.83 378.84C537.28 380.23 532.58 384.12 530.67 378.68C529.15 374.36 512.67 347.06 505.95 336.06L503.16 331.48C503.16 331.48 484.35 340.89 479.83 337.75V344.37L483.66 344.72L504.2 383.02C504.2 383.02 510.66 393.27 510.2 396.86C509.74 400.45 518.46 416.11 519.85 417.15C521.24 418.19 536.22 435.61 536.22 435.61C536.22 435.61 543.88 473.22 537.22 483.67C530.56 494.12 519.11 501.78 519.11 501.78C519.11 501.78 515.66 511.87 516.11 512.92C516.56 513.97 512.11 518.49 514.18 519.92C516.25 521.35 519.06 531.07 519.06 531.07C519.06 531.07 528.81 515.4 534.06 512.96C539.31 510.52 546.06 478.48 546.06 478.48C546.06 478.48 547.98 459.59 548.14 447.4C548.3 435.21 547.73 389.29 551.91 389.29Z" fill="black"/>
<path d="M550.87 389.29C550.87 389.29 545.99 381.63 543.21 383.72C540.43 385.81 539.34 377.45 537.79 378.84C536.24 380.23 531.54 384.12 529.63 378.68C528.1 374.36 511.63 347.06 504.91 336.06C503.19 333.23 502.11 331.48 502.11 331.48C502.11 331.48 483.31 340.89 478.78 337.75V344.37L482.61 344.72L503.16 383.02C503.16 383.02 509.61 393.27 509.16 396.86C508.71 400.45 517.43 416.11 518.82 417.15C520.21 418.19 535.19 435.61 535.19 435.61C535.19 435.61 542.85 473.22 536.19 483.67C532.688 488.909 528.428 493.6 523.55 497.59C519.477 500.974 516.614 505.588 515.39 510.74C515.155 511.441 515.073 512.185 515.15 512.92C515.66 513.92 511.15 518.49 513.22 519.92C515.29 521.35 518.09 531.07 518.09 531.07C518.09 531.07 527.84 515.4 533.09 512.96C538.34 510.52 545.09 478.48 545.09 478.48C545.09 478.48 547 459.59 547.16 447.4C547.32 435.21 546.69 389.29 550.87 389.29Z" fill="#F1D2D7"/>
<path opacity="0.1" d="M503.16 547.74C503.16 547.74 517.79 550.53 523.71 554.74C529.63 558.95 501.42 548.12 501.42 548.12L503.16 547.74Z" fill="black"/>
<path opacity="0.1" d="M538.33 584.83C538.33 584.83 553.65 597.54 550.87 609.04C548.09 620.54 541.07 649.44 541.07 649.44L538.33 584.83Z" fill="black"/>
<path opacity="0.1" d="M404.87 560.37C404.87 560.37 383.36 562.72 384.75 565.5C386.14 568.28 404.87 562.94 404.87 562.94V560.37Z" fill="black"/>
<path opacity="0.1" d="M570.02 666.15C570.02 666.15 571.42 667.89 563.41 666.15C555.4 664.41 561.32 659.05 561.32 659.05L570.02 666.15Z" fill="black"/>
<path opacity="0.1" d="M567.24 690.18C567.24 690.18 556.24 691.92 550.43 690.18C544.62 688.44 567.24 690.18 567.24 690.18Z" fill="black"/>
<path opacity="0.1" d="M544.77 784.2C544.77 784.2 542.86 782.11 533.28 785.95C523.7 789.79 519.87 789.95 517.09 788.73C514.31 787.51 544.77 784.2 544.77 784.2Z" fill="black"/>
<path opacity="0.1" d="M555.4 557.41L541.81 576.3C541.81 576.3 549.13 559.76 555.4 557.41Z" fill="black"/>
<path opacity="0.1" d="M528.93 383.69C528.93 383.69 528.35 389.96 519.59 392.4C510.83 394.84 509.17 396.83 509.17 396.83" fill="black"/>
<path opacity="0.1" d="M506.24 338.25C506.24 338.25 494.69 346.47 482.61 344.72Z" fill="black"/>
<path opacity="0.1" d="M515.04 513.79C515.04 513.79 518.42 515.91 526.52 506.64Z" fill="black"/>
<path opacity="0.1" d="M599.19 415.56C599.52 413.87 598.34 412.29 597.19 410.97L594.92 408.26C594.479 407.702 593.983 407.19 593.44 406.73C592.1 405.68 590.32 405.36 588.9 404.42" fill="black"/>
<path d="M583.33 49.61H434.38C431.878 49.5955 429.398 50.0739 427.081 51.0179C424.765 51.9619 422.656 53.353 420.877 55.1117C419.098 56.8705 417.683 58.9625 416.712 61.2682C415.741 63.5739 415.234 66.0483 415.22 68.55V215.84C415.234 218.342 415.741 220.816 416.712 223.122C417.683 225.428 419.098 227.52 420.877 229.278C422.656 231.037 424.765 232.428 427.081 233.372C429.398 234.316 431.878 234.794 434.38 234.78H583.38C585.882 234.794 588.362 234.316 590.678 233.372C592.995 232.428 595.103 231.037 596.883 229.278C598.662 227.52 600.077 225.428 601.048 223.122C602.019 220.816 602.526 218.342 602.54 215.84V68.55C602.526 66.0441 602.017 63.5656 601.043 61.2566C600.069 58.9476 598.649 56.8534 596.865 55.0939C595.08 53.3345 592.966 51.9445 590.644 51.0035C588.321 50.0624 585.836 49.5889 583.33 49.61Z" fill="url(#paint2_linear)"/>
<path d="M582.81 49.61H435.53C425.064 49.61 416.58 58.0942 416.58 68.56V215.84C416.58 226.306 425.064 234.79 435.53 234.79H582.81C593.276 234.79 601.76 226.306 601.76 215.84V68.56C601.76 58.0942 593.276 49.61 582.81 49.61Z" fill="#FE654F"/>
<path d="M477.34 167.9C474.795 167.899 472.328 168.78 470.359 170.394C468.391 172.007 467.043 174.254 466.546 176.75C466.048 179.246 466.432 181.838 467.631 184.083C468.83 186.328 470.771 188.088 473.122 189.062C475.474 190.036 478.09 190.165 480.526 189.427C482.962 188.688 485.066 187.127 486.48 185.011C487.894 182.895 488.53 180.353 488.281 177.82C488.031 175.287 486.91 172.919 485.11 171.12C484.101 170.085 482.891 169.266 481.556 168.712C480.22 168.159 478.786 167.882 477.34 167.9V167.9Z" fill="#EAEAF3"/>
<path d="M474.89 144.69C474.899 141.845 473.921 139.085 472.123 136.88C470.324 134.676 467.817 133.163 465.028 132.601C462.239 132.039 459.341 132.462 456.829 133.798C454.317 135.134 452.347 137.3 451.254 139.927C450.16 142.554 450.012 145.478 450.835 148.202C451.657 150.925 453.399 153.279 455.763 154.862C458.128 156.445 460.968 157.158 463.799 156.881C466.631 156.603 469.278 155.352 471.29 153.34C472.45 152.221 473.368 150.876 473.987 149.388C474.606 147.9 474.914 146.301 474.89 144.69V144.69Z" fill="#EAEAF3"/>
<path d="M545.9 116.48C547.318 116.475 548.69 115.979 549.783 115.076C550.876 114.174 551.622 112.92 551.895 111.529C552.167 110.138 551.949 108.695 551.278 107.446C550.606 106.198 549.523 105.221 548.212 104.681C546.901 104.142 545.443 104.073 544.088 104.488C542.732 104.902 541.562 105.773 540.776 106.953C539.991 108.134 539.638 109.55 539.78 110.96C539.921 112.371 540.546 113.689 541.55 114.69C542.114 115.27 542.791 115.729 543.539 116.036C544.287 116.344 545.091 116.495 545.9 116.48Z" fill="#EAEAF3"/>
<path d="M477.34 96.9C474.229 96.9044 471.216 97.9869 468.814 99.9634C466.411 101.94 464.768 104.688 464.165 107.74C463.561 110.791 464.034 113.958 465.502 116.7C466.971 119.443 469.345 121.591 472.22 122.78C475.095 123.968 478.293 124.123 481.269 123.219C484.246 122.314 486.817 120.406 488.544 117.819C490.272 115.232 491.049 112.126 490.744 109.03C490.439 105.934 489.07 103.04 486.87 100.84C485.634 99.568 484.151 98.5622 482.512 97.8846C480.873 97.207 479.113 96.872 477.34 96.9V96.9Z" fill="#EAEAF3"/>
<path d="M565.8 139.44C564.594 138.222 563.003 137.46 561.298 137.284C559.594 137.108 557.881 137.53 556.452 138.477C555.023 139.424 553.968 140.837 553.465 142.476C552.963 144.114 553.044 145.876 553.697 147.461C554.349 149.046 555.531 150.356 557.041 151.166C558.552 151.976 560.297 152.237 561.978 151.904C563.659 151.571 565.173 150.665 566.26 149.34C567.347 148.015 567.941 146.354 567.94 144.64C567.957 143.673 567.775 142.713 567.407 141.819C567.039 140.925 566.492 140.115 565.8 139.44V139.44Z" fill="#EAEAF3"/>
<path d="M545.9 170.35C543.902 170.327 541.958 170.998 540.4 172.25C538.842 173.501 537.768 175.255 537.36 177.211C536.953 179.168 537.237 181.205 538.166 182.974C539.094 184.744 540.609 186.136 542.45 186.912C544.291 187.689 546.345 187.801 548.26 187.231C550.175 186.66 551.832 185.442 552.949 183.785C554.065 182.127 554.571 180.133 554.379 178.144C554.188 176.155 553.312 174.294 551.9 172.88C551.123 172.075 550.19 171.435 549.159 171C548.128 170.566 547.019 170.344 545.9 170.35V170.35Z" fill="#EAEAF3"/>
<path d="M511.62 183.82C509.353 183.82 507.156 184.606 505.403 186.045C503.651 187.483 502.451 189.485 502.009 191.709C501.567 193.932 501.909 196.241 502.978 198.24C504.047 200.24 505.776 201.807 507.871 202.674C509.966 203.542 512.296 203.656 514.466 202.998C516.636 202.34 518.51 200.949 519.769 199.064C521.029 197.179 521.596 194.915 521.373 192.659C521.151 190.403 520.153 188.293 518.55 186.69C517.651 185.765 516.573 185.034 515.381 184.54C514.189 184.047 512.91 183.802 511.62 183.82V183.82Z" fill="#EAEAF3"/>
<path d="M511.62 80.98C508.243 80.9981 504.977 82.1852 502.377 84.3395C499.777 86.4938 498.003 89.4823 497.358 92.7967C496.712 96.1111 497.235 99.5467 498.836 102.519C500.438 105.492 503.02 107.818 506.143 109.102C509.266 110.386 512.737 110.549 515.966 109.562C519.196 108.576 521.984 106.501 523.856 103.691C525.729 100.881 526.57 97.5096 526.237 94.1493C525.904 90.7891 524.417 87.6479 522.03 85.26C520.678 83.8748 519.057 82.7806 517.267 82.0445C515.477 81.3085 513.555 80.9463 511.62 80.98V80.98Z" fill="#EAEAF3"/>
<defs>
<linearGradient id="paint0_linear" x1="660.1" y1="817.86" x2="660.1" y2="686.84" gradientUnits="userSpaceOnUse">
<stop stop-color="#808080" stop-opacity="0.25"/>
<stop offset="0.54" stop-color="#808080" stop-opacity="0.12"/>
<stop offset="1" stop-color="#808080" stop-opacity="0.1"/>
</linearGradient>
<linearGradient id="paint1_linear" x1="165185" y1="548340" x2="165185" y2="133091" gradientUnits="userSpaceOnUse">
<stop stop-color="#808080" stop-opacity="0.25"/>
<stop offset="0.54" stop-color="#808080" stop-opacity="0.12"/>
<stop offset="1" stop-color="#808080" stop-opacity="0.1"/>
</linearGradient>
<linearGradient id="paint2_linear" x1="87644.5" y1="31252.8" x2="122724" y2="31252.8" gradientUnits="userSpaceOnUse">
<stop stop-color="#808080" stop-opacity="0.25"/>
<stop offset="0.54" stop-color="#808080" stop-opacity="0.12"/>
<stop offset="1" stop-color="#808080" stop-opacity="0.1"/>
</linearGradient>
</defs>
</svg>
