<svg viewBox="0 0 397 207" fill="none" xmlns="http://www.w3.org/2000/svg">
<path opacity="0.2" d="M190.43 171.452H23.241L105.314 52.239L111.22 43.652L114.173 39.358L121.619 52.239L190.43 171.452Z" fill="black"/>
<path d="M397 170H0V172H397V170Z" fill="#3F3D56"/>
<path d="M199.984 117.06C202.009 111.831 190.149 102.362 173.493 95.9094C156.838 89.457 141.693 88.465 139.668 93.6938C137.642 98.9226 149.502 108.392 166.158 114.844C182.814 121.297 197.958 122.289 199.984 117.06Z" fill="#2F2E41"/>
<path d="M234.613 178.906C270.337 178.906 299.297 149.946 299.297 114.223C299.297 78.4986 270.337 49.5387 234.613 49.5387C198.889 49.5387 169.929 78.4986 169.929 114.223C169.929 149.946 198.889 178.906 234.613 178.906Z" fill="#2F2E41"/>
<path d="M244.438 200.195H264.089V164.987H244.438V200.195Z" fill="#2F2E41"/>
<path d="M205.137 200.195H224.788V164.987H205.137V200.195Z" fill="#2F2E41"/>
<path d="M247.714 206.745C256.758 206.745 264.089 203.996 264.089 200.604C264.089 197.213 256.758 194.463 247.714 194.463C238.669 194.463 231.338 197.213 231.338 200.604C231.338 203.996 238.669 206.745 247.714 206.745Z" fill="#2F2E41"/>
<path d="M208.412 205.926C217.456 205.926 224.788 203.177 224.788 199.785C224.788 196.394 217.456 193.644 208.412 193.644C199.368 193.644 192.036 196.394 192.036 199.785C192.036 203.177 199.368 205.926 208.412 205.926Z" fill="#2F2E41"/>
<path d="M232.975 119.954C245.185 119.954 255.083 110.056 255.083 97.8469C255.083 85.6374 245.185 75.7397 232.975 75.7397C220.766 75.7397 210.868 85.6374 210.868 97.8469C210.868 110.056 220.766 119.954 232.975 119.954Z" fill="white"/>
<path d="M232.975 105.216C237.045 105.216 240.344 101.917 240.344 97.8469C240.344 93.777 237.045 90.4778 232.975 90.4778C228.906 90.4778 225.606 93.777 225.606 97.8469C225.606 101.917 228.906 105.216 232.975 105.216Z" fill="#3F3D56"/>
<path d="M297.358 54.0684C302.581 30.6778 285.886 7.04249 260.068 1.27757C234.25 -4.48735 209.086 9.80114 203.863 33.1918C198.64 56.5824 215.751 65.2093 241.569 70.9742C267.387 76.7391 292.135 77.4591 297.358 54.0684Z" fill="#FE654F"/>
<path d="M322.338 145.078C326.303 141.113 319.278 127.66 306.648 115.03C294.018 102.399 280.564 95.3747 276.599 99.3398C272.634 103.305 279.659 116.758 292.289 129.388C304.92 142.019 318.373 149.043 322.338 145.078Z" fill="#2F2E41"/>
<path d="M266.385 137.558C266.385 143.889 250.085 156.39 231.997 156.39C213.909 156.39 196.949 138.567 196.949 132.236C196.949 125.905 213.909 133.464 231.997 133.464C250.085 133.464 266.385 131.227 266.385 137.558Z" fill="white"/>
</svg>
