<svg viewBox="0 0 1144 653" fill="none" xmlns="http://www.w3.org/2000/svg">
<path opacity="0.1" d="M637.404 482.097C657.919 480.928 683.372 467.028 703.163 460.88C726.587 453.623 750.103 446.641 773.712 439.933C855.901 416.572 938.972 396.666 1022.92 380.217C1030.76 378.677 1038.61 377.175 1046.47 375.71C1034.22 349.284 1015.26 326.529 991.456 309.716C992.066 303.931 992.376 298.118 992.385 292.301C992.385 200.371 918.838 125.846 828.081 125.846C800.139 125.816 772.666 133.021 748.342 146.756C684.106 104.546 600.264 79 508.533 79C378.185 79 263.757 130.584 198.917 208.262L503.65 259.689L690.548 291.217C477.482 297.568 263.757 303.883 51.3031 288.973C23.2581 316.079 5.50766 352.074 1.08521 390.805C-3.33725 429.536 5.84285 468.6 27.0566 501.319V501.319C27.0566 504.648 27.1958 507.949 27.4465 511.222C32.8583 512.771 38.0845 514.273 42.7722 515.256C118.03 531.137 193.771 544.428 269.995 555.129C213.825 589.726 145.421 594.622 80.6272 609.273C112.003 635.144 154.61 651 201.562 651H900.662C976.363 651 1037.72 598.359 1037.72 533.412C1049.08 514.7 1056.65 493.941 1060 472.314C919.924 485.824 778.103 474.094 637.404 482.097Z" fill="#FE654F"/>
<path opacity="0.1" d="M1061 446.164C1061.07 420.29 1054.92 394.778 1043.07 371.78C1031.22 348.782 1014.02 328.973 992.906 314.023C993.49 308.434 993.789 302.818 993.802 297.199C993.802 208.333 922.779 136.32 835.217 136.32C808.246 136.291 781.727 143.252 758.245 156.524C696.244 115.704 615.312 91 526.773 91C382.756 91 258.79 156.389 203.814 250.158C200.759 249.978 197.686 249.88 194.586 249.88C107.014 249.88 36.0003 321.92 36.0003 410.785C35.9389 442.174 45.0039 472.903 62.0907 499.229C62.0907 579.184 137.522 644 230.532 644H905.317C978.374 644 1037.6 593.105 1037.6 530.324C1052.96 504.948 1061.06 475.833 1061 446.164Z" fill="#FE654F"/>
<g opacity="0.1">
<path opacity="0.1" d="M789.39 148.07L788.14 148.16L788 148.26C788.468 148.241 788.934 148.177 789.39 148.07V148.07Z" fill="black"/>
<path opacity="0.1" d="M812.27 168.83C812.061 170.818 811.632 172.777 810.99 174.67C810.577 175.819 810.243 176.995 809.99 178.19C809.79 179.35 809.77 180.53 809.59 181.69C809.368 183.194 808.848 184.639 808.06 185.939C807.272 187.239 806.231 188.368 805 189.26C804.649 189.546 804.212 189.705 803.76 189.71C802.98 189.62 802.5 188.71 802.21 187.89C800.62 183.3 801 177.69 798.07 174.03C796.737 172.554 795.126 171.354 793.33 170.5C792.598 170.027 791.772 169.717 790.91 169.59C789.642 169.658 788.423 170.104 787.41 170.87C785.299 172.286 782.957 173.321 780.49 173.93C779.259 174.222 777.978 174.235 776.741 173.968C775.504 173.702 774.342 173.163 773.34 172.39C771.96 171.25 770.95 169.54 769.42 168.65C767.89 167.76 766.29 167.81 764.78 167.2C763.837 166.797 762.996 166.187 762.321 165.415C761.646 164.643 761.153 163.729 760.88 162.74C760.845 162.615 760.818 162.488 760.8 162.36C760.55 163.476 760.578 164.637 760.88 165.74C761.153 166.729 761.646 167.643 762.321 168.415C762.996 169.187 763.837 169.797 764.78 170.2C766.29 170.81 767.99 170.82 769.42 171.65C770.85 172.48 771.96 174.25 773.34 175.39C774.342 176.163 775.504 176.702 776.741 176.968C777.978 177.235 779.259 177.222 780.49 176.93C782.957 176.321 785.299 175.286 787.41 173.87C788.423 173.104 789.642 172.658 790.91 172.59C791.772 172.717 792.598 173.027 793.33 173.5C795.104 174.371 796.69 175.58 798 177.06C800.93 180.72 800.55 186.33 802.14 190.92C802.43 191.75 802.91 192.65 803.69 192.74C804.17 192.742 804.635 192.572 805 192.26C806.236 191.366 807.281 190.232 808.071 188.926C808.861 187.621 809.381 186.17 809.6 184.66C809.78 183.5 809.8 182.32 810 181.16C810.253 179.965 810.587 178.789 811 177.64C811.974 174.947 812.426 172.092 812.33 169.23C812.31 169.11 812.29 168.97 812.27 168.83Z" fill="black"/>
</g>
<path d="M749 249.07L748.32 258.2C748.22 259.44 745.85 288.96 728.37 323.46C713.37 353.05 684.18 391.59 629.07 413.25C624.77 414.95 620.307 416.537 615.68 418.01L610.52 401.81C623.474 397.733 635.953 392.275 647.74 385.53C675.83 369.31 697.67 346.16 712.9 316.37C720.98 300.509 726.739 283.569 730 266.07H667.3V249.07H749Z" fill="#FE654F"/>
<path opacity="0.1" d="M622.32 413.26C677.42 391.6 706.62 353.07 721.61 323.48C739.09 288.98 741.47 259.48 741.56 258.22L742.24 249.09H749.24L748.56 258.22C748.47 259.46 746.09 288.98 728.61 323.48C713.61 353.07 684.42 391.6 629.32 413.26C625.02 414.96 620.553 416.55 615.92 418.03L615.24 415.9C617.653 415.04 620.013 414.16 622.32 413.26Z" fill="white"/>
<path d="M512 401.81L506.84 418.01C502.207 416.53 497.74 414.94 493.44 413.24C438.34 391.58 409.14 353.05 394.15 323.46C376.67 288.96 374.29 259.46 374.2 258.2L373.52 249.07H455.18V266.07H392.47C395.748 283.572 401.524 300.511 409.62 316.37C424.85 346.16 446.68 369.31 474.77 385.52C486.558 392.272 499.041 397.734 512 401.81V401.81Z" fill="#FE654F"/>
<path opacity="0.1" d="M500.18 413.26C445.08 391.6 415.88 353.07 400.89 323.48C383.41 288.98 381.03 259.48 380.94 258.22L380.26 249.09H373.26L373.94 258.22C374.03 259.46 376.41 288.98 393.89 323.48C408.89 353.07 438.08 391.6 493.18 413.26C497.48 414.96 501.947 416.55 506.58 418.03L507.26 415.9C504.853 415.04 502.493 414.16 500.18 413.26Z" fill="white"/>
<path d="M655.59 558.41V650.08H466.92V558.41L472.92 550.41C534.06 528.71 546.45 472.12 548.92 449.73C549.288 446.636 549.498 443.525 549.55 440.41H572.88C572.932 443.525 573.142 446.636 573.51 449.73C576.02 472.12 588.41 528.73 649.51 550.41L655.59 558.41Z" fill="#FE654F"/>
<path opacity="0.1" d="M655.59 558.41H466.92V569.91H655.59V558.41Z" fill="black"/>
<path opacity="0.1" d="M482.92 550.41C544.06 528.71 556.45 472.12 558.92 449.73C559.288 446.636 559.498 443.525 559.55 440.41H549.55C549.498 443.525 549.288 446.636 548.92 449.73C546.41 472.12 534.02 528.73 472.92 550.41L466.92 558.41V650.08H476.92V558.41L482.92 550.41Z" fill="white"/>
<path opacity="0.1" d="M438.26 249.07H455.18V266.07H439.76C439.153 260.47 438.653 254.803 438.26 249.07Z" fill="black"/>
<path opacity="0.1" d="M512 401.81L506.84 418.01C502.207 416.53 497.74 414.94 493.44 413.24C486.367 404.602 480.116 395.322 474.77 385.52C486.558 392.272 499.041 397.734 512 401.81Z" fill="black"/>
<path opacity="0.1" d="M610.51 401.81C623.464 397.733 635.943 392.275 647.73 385.53C642.381 395.333 636.131 404.616 629.06 413.26C624.76 414.96 620.297 416.547 615.67 418.02L610.51 401.81Z" fill="black"/>
<path opacity="0.1" d="M684.24 249.07C683.847 254.803 683.347 260.47 682.74 266.07H667.33V249.07H684.24Z" fill="black"/>
<path opacity="0.1" d="M573.55 449.73C565.429 451.303 557.081 451.303 548.96 449.73C549.328 446.636 549.538 443.525 549.59 440.41H572.92C572.972 443.525 573.182 446.636 573.55 449.73V449.73Z" fill="black"/>
<path d="M440.26 220.91C440.69 346.97 494.69 448.91 561.26 448.91C627.83 448.91 681.82 346.97 682.26 220.91H440.26Z" fill="#FE654F"/>
<path opacity="0.1" d="M461.76 220.91H440.26C440.69 346.97 494.69 448.91 561.26 448.91C564.862 448.903 568.458 448.599 572.01 448C510.47 437.72 462.17 340.11 461.76 220.91Z" fill="white"/>
<path d="M625.42 593.5H497.09V626.5H625.42V593.5Z" fill="#3F3D56"/>
<path opacity="0.1" d="M503.09 598H625.42V593.5H497.09V626.5H503.09V598Z" fill="white"/>
<path opacity="0.1" d="M816.752 51.1096C816.752 51.1096 732.562 46.0296 742.462 105.03C742.462 105.03 740.462 115.46 749.942 120.19C749.942 120.19 750.092 115.82 758.582 117.31C761.605 117.811 764.676 117.958 767.732 117.75C771.862 117.464 775.786 115.843 778.912 113.13V113.13C778.912 113.13 802.582 103.35 811.782 64.6696C811.782 64.6696 818.592 56.2296 818.322 54.0596L804.112 60.1296C804.112 60.1296 808.972 70.3796 805.112 78.8996C805.112 78.8996 804.652 60.4996 801.922 60.8996C801.372 60.9896 794.542 64.4496 794.542 64.4496C794.542 64.4496 802.892 82.2996 796.592 95.2796C796.592 95.2796 798.982 73.2796 791.932 65.7396L781.932 71.5796C781.932 71.5796 791.692 90.0196 785.072 105.07C785.072 105.07 786.772 81.9896 779.822 72.9996L770.762 80.0696C770.762 80.0696 779.932 98.2496 774.342 110.73C774.342 110.73 773.612 83.8596 768.802 81.8296C768.802 81.8296 760.872 88.8296 759.662 91.6896C759.662 91.6896 765.942 104.89 762.042 111.85C762.042 111.85 759.652 93.9496 757.692 93.8496C757.692 93.8496 749.792 105.71 748.972 113.85C748.972 113.85 749.312 101.76 755.782 92.7296C755.782 92.7296 748.142 94.0396 743.682 98.9896C743.682 98.9896 744.912 90.6096 757.732 89.8796C757.732 89.8796 764.262 80.8796 766.002 80.3296C766.002 80.3296 753.262 79.2696 745.532 82.6896C745.532 82.6896 752.332 74.7796 768.342 78.3796L777.292 71.0696C777.292 71.0696 760.512 68.7796 753.392 71.3096C753.392 71.3096 761.582 64.3096 779.702 69.4096L789.442 63.5896C789.442 63.5896 775.132 60.5096 766.612 61.5896C766.612 61.5896 775.612 56.7396 792.302 61.9996L799.302 58.8696C799.302 58.8696 788.822 56.8096 785.752 56.4796C782.682 56.1496 782.522 55.3096 782.522 55.3096C789.162 54.2025 795.978 54.9607 802.212 57.4996C802.212 57.4996 817.012 52.0396 816.752 51.1096Z" fill="#FE654F"/>
<path opacity="0.1" d="M712.912 66.1196C712.912 66.1196 674.912 63.8196 679.362 90.4796C679.362 90.4796 678.472 95.1996 682.732 97.3396C682.732 97.3396 682.802 95.3396 686.642 96.0296C688.006 96.2592 689.393 96.3263 690.772 96.2296C692.639 96.1028 694.412 95.3688 695.822 94.1396V94.1396C695.822 94.1396 706.522 89.7296 710.682 72.2496C710.682 72.2496 713.752 68.4296 713.632 67.4496L707.212 70.1896C707.212 70.1896 709.412 74.8296 707.682 78.6796C707.682 78.6796 707.472 70.3596 706.242 70.5596C705.992 70.5596 702.902 72.1596 702.902 72.1596C702.902 72.1596 706.682 80.2296 703.832 86.0996C703.832 86.0996 704.912 76.1596 701.722 72.7496L697.202 75.3896C697.202 75.3896 701.622 83.7196 698.622 90.5196C698.622 90.5196 699.392 80.0896 696.252 76.0296L692.162 79.2596C692.162 79.2596 696.302 87.4796 693.782 93.1096C693.782 93.1096 693.452 80.9696 691.272 80.0596C691.272 80.0596 687.692 83.2196 687.142 84.5196C687.142 84.5196 689.982 90.5196 688.222 93.6196C688.222 93.6196 687.142 85.5296 686.222 85.4996C686.222 85.4996 682.662 90.8596 682.282 94.4996C682.461 91.1026 683.522 87.8108 685.362 84.9496C683.302 85.3399 681.401 86.3235 679.892 87.7796C679.892 87.7796 680.452 83.9996 686.242 83.6596C686.242 83.6596 689.242 79.5996 689.982 79.3496C689.982 79.3496 684.222 78.8696 680.732 80.4196C680.732 80.4196 683.802 76.8396 691.042 78.4196L695.042 75.1196C695.042 75.1196 687.462 74.1196 684.242 75.2296C684.242 75.2296 687.942 72.0696 696.132 74.3696L700.532 71.7396C700.532 71.7396 694.072 70.3396 690.212 70.8496C690.212 70.8496 694.282 68.6496 701.822 71.0296L704.972 69.6196C704.972 69.6196 700.232 68.6796 698.842 68.5396C697.452 68.3996 697.382 68.0096 697.382 68.0096C700.384 67.5102 703.466 67.8565 706.282 69.0096C706.282 69.0096 713.032 66.5396 712.912 66.1196Z" fill="#FE654F"/>
<path d="M761.21 651.454C783.417 651.454 801.42 648.409 801.42 644.654C801.42 640.898 783.417 637.854 761.21 637.854C739.003 637.854 721 640.898 721 644.654C721 648.409 739.003 651.454 761.21 651.454Z" fill="#FE654F"/>
<path d="M777.84 633.534C779.676 632.038 781.012 630.018 781.67 627.744C782.17 625.454 781.19 622.744 778.99 621.854C776.53 620.914 773.9 622.624 771.91 624.344C769.92 626.064 767.63 628.034 765.03 627.664C766.37 626.447 767.372 624.904 767.94 623.185C768.508 621.466 768.621 619.63 768.27 617.854C768.156 617.118 767.845 616.427 767.37 615.854C766 614.394 763.53 615.014 761.89 616.164C756.69 619.824 755.24 626.894 755.21 633.244C754.69 630.954 755.13 628.564 755.12 626.244C755.11 623.924 754.46 621.244 752.47 620.014C751.243 619.354 749.863 619.029 748.47 619.074C746.14 618.984 743.53 619.224 741.94 620.934C739.94 623.054 740.47 626.614 742.19 628.934C743.91 631.254 746.54 632.744 748.96 634.354C750.896 635.508 752.547 637.084 753.79 638.964C753.94 639.227 754.061 639.505 754.15 639.794H768.81C772.089 638.124 775.126 636.018 777.84 633.534V633.534Z" fill="#FE654F"/>
</svg>
