<svg viewBox="0 0 84 77" fill="none" xmlns="http://www.w3.org/2000/svg">
<path d="M52.2667 58.7535C40.7364 58.7535 31.36 49.453 31.36 38.0175C31.36 26.5813 40.7364 17.2815 52.2667 17.2815C63.797 17.2815 73.1733 26.5813 73.1733 38.0175C73.1733 49.453 63.797 58.7535 52.2667 58.7535ZM52.2667 22.4655C43.6215 22.4655 36.5867 29.4429 36.5867 38.0175C36.5867 46.5915 43.6215 53.5695 52.2667 53.5695C60.9119 53.5695 67.9467 46.5915 67.9467 38.0175C67.9467 29.4429 60.9119 22.4655 52.2667 22.4655Z" fill="white"/>
<path d="M81.0133 69.1215C80.3441 69.1215 79.6754 68.869 79.1663 68.3608L63.3472 52.6709C62.3263 51.6584 62.3263 50.0162 63.3472 49.0037C64.368 47.9912 66.023 47.9912 67.0445 49.0037L82.8636 64.6943C83.8844 65.7068 83.8844 67.3483 82.8636 68.3608C82.3513 68.869 81.6826 69.1215 81.0133 69.1215V69.1215Z" fill="white"/>
<path d="M60.1067 5.18539H2.61333C1.17077 5.18539 0 4.02418 0 2.59339C0 1.1626 1.17077 0.00138855 2.61333 0.00138855H60.1067C61.5492 0.00138855 62.72 1.1626 62.72 2.59339C62.72 4.02418 61.5492 5.18539 60.1067 5.18539Z" fill="#7BDFF2"/>
<path d="M60.1067 76.0331H2.61333C1.17077 76.0331 0 74.8718 0 73.4411C0 72.0103 1.17077 70.8491 2.61333 70.8491H60.1067C61.5492 70.8491 62.72 72.0103 62.72 73.4411C62.72 74.8718 61.5492 76.0331 60.1067 76.0331Z" fill="#7BDFF2"/>
<path d="M28.7467 22.4655H2.61333C1.17077 22.4655 0 21.3043 0 19.8735C0 18.4427 1.17077 17.2815 2.61333 17.2815H28.7467C30.1892 17.2815 31.36 18.4427 31.36 19.8735C31.36 21.3043 30.1892 22.4655 28.7467 22.4655Z" fill="#B2FFD6"/>
<path d="M28.7467 58.7535H2.61333C1.17077 58.7535 0 57.5923 0 56.1615C0 54.7307 1.17077 53.5695 2.61333 53.5695H28.7467C30.1892 53.5695 31.36 54.7307 31.36 56.1615C31.36 57.5923 30.1892 58.7535 28.7467 58.7535Z" fill="#FE654F"/>
<path d="M21.7776 40.6095H2.61333C1.17077 40.6095 0 39.4483 0 38.0175C0 36.5867 1.17077 35.4255 2.61333 35.4255H21.7776C23.2201 35.4255 24.3909 36.5867 24.3909 38.0175C24.3909 39.4483 23.2201 40.6095 21.7776 40.6095Z" fill="#F7EF81"/>
</svg>
